# Blender 4.1.1
# www.blender.org
mtllib Player.mtl
o Cube
v -1.000000 1.000000 0.257224
v -0.306450 -1.000000 1.000000
v -1.000000 1.000000 -1.000000
v -1.000000 -1.000000 -1.000000
v 1.000000 1.000000 0.170088
v 0.121556 -1.000000 1.000000
v 1.000000 1.000000 -1.000000
v 1.000000 -1.000000 -1.000000
vn -0.0000 1.0000 -0.0000
vn -0.0000 -0.0000 -1.0000
vn 0.8912 -0.2290 0.3915
vn -0.0000 -1.0000 -0.0000
vn -0.9254 -0.2017 0.3209
vn -0.0000 0.3482 0.9374
vn 1.0000 -0.0000 -0.0000
vn -1.0000 -0.0000 -0.0000
vn 0.0405 0.3677 0.9290
vt 0.875000 0.500000
vt 0.625000 0.750000
vt 0.625000 0.500000
vt 0.375000 1.000000
vt 0.375000 0.750000
vt 0.375000 0.000000
vt 0.625000 0.250000
vt 0.375000 0.250000
vt 0.125000 0.500000
vt 0.125000 0.750000
vt 0.375000 0.500000
vt 0.875000 0.750000
vt 0.625000 1.000000
vt 0.625000 0.000000
s 0
usemtl Material
f 5/1/1 3/2/1 1/3/1
f 3/2/2 8/4/2 4/5/2
f 8/6/3 5/7/3 6/8/3
f 6/9/4 4/5/4 8/10/4
f 1/3/5 4/5/5 2/11/5
f 6/8/6 1/3/6 2/11/6
f 5/1/1 7/12/1 3/2/1
f 3/2/2 7/13/2 8/4/2
f 8/6/7 7/14/7 5/7/7
f 6/9/4 2/11/4 4/5/4
f 1/3/8 3/2/8 4/5/8
f 6/8/9 5/7/9 1/3/9
