# Blender 4.1.1
# www.blender.org
mtllib Goal.mtl
o 円錐
v 0.000000 11.801818 -0.069175
v -0.064380 11.828335 -0.069175
v -0.126286 11.906864 -0.069175
v -0.183338 12.034390 -0.069175
v -0.233345 12.206011 -0.069175
v -0.274385 12.415132 -0.069175
v -0.304880 12.653715 -0.069175
v -0.323659 12.912594 -0.069175
v -0.330000 13.181818 -0.069175
v -0.323659 13.451043 -0.069175
v -0.304880 13.709921 -0.069175
v -0.274385 13.948505 -0.069175
v -0.233345 14.157625 -0.069175
v -0.183338 14.329247 -0.069175
v -0.126286 14.456772 -0.069175
v -0.064380 14.535302 -0.069175
v 0.000000 14.561818 -0.069175
v 0.064380 14.535302 -0.069175
v 0.126286 14.456772 -0.069175
v 0.183338 14.329247 -0.069175
v 0.233345 14.157625 -0.069175
v 0.274385 13.948505 -0.069175
v 0.304880 13.709921 -0.069175
v 0.323659 13.451043 -0.069175
v 0.330000 13.181818 -0.069175
v 0.323659 12.912594 -0.069175
v 0.304880 12.653715 -0.069175
v 0.274385 12.415132 -0.069175
v 0.233345 12.206011 -0.069175
v 0.183338 12.034390 -0.069175
v 0.126286 11.906864 -0.069175
v 0.064380 11.828335 -0.069175
v 0.000000 13.181818 3.830825
v -1.000000 1.000001 1.000000
v -1.000000 -1.000000 1.000000
v -1.000000 1.000001 -1.000000
v 1.000000 1.000001 1.000000
v 1.000000 -1.000000 1.000000
v 1.000000 1.000001 -1.000000
v 1.000000 -1.000000 -1.000000
v -1.000000 -1.000000 -1.000000
v 0.000000 0.389999 0.350000
v -0.068282 0.389999 0.343275
v 0.000000 14.690001 0.350000
v 0.068282 0.389999 0.343275
v 0.133939 0.389999 0.323358
v 0.068282 14.690001 0.343275
v 0.133939 14.690001 0.323358
v 0.194450 14.690001 0.291014
v 0.247487 14.690001 0.247487
v 0.194450 0.389999 0.291014
v 0.247487 0.389999 0.247487
v 0.291014 0.389999 0.194450
v 0.323358 0.389999 0.133939
v 0.291014 14.690001 0.194450
v 0.323358 14.690001 0.133939
v 0.343275 14.690001 0.068282
v 0.350000 14.690001 0.000000
v 0.343275 0.389999 0.068282
v 0.350000 0.389999 0.000000
v 0.343275 0.389999 -0.068282
v 0.323358 0.389999 -0.133939
v 0.343275 14.690001 -0.068282
v 0.323358 14.690001 -0.133939
v 0.291014 14.690001 -0.194450
v 0.247487 14.690001 -0.247487
v 0.291014 0.389999 -0.194449
v 0.247487 0.389999 -0.247487
v 0.194450 0.389999 -0.291014
v 0.133939 0.389999 -0.323358
v 0.194450 14.690001 -0.291014
v 0.133939 14.690001 -0.323358
v 0.068282 14.690001 -0.343275
v 0.000000 14.690001 -0.350000
v 0.068282 0.389999 -0.343275
v 0.000000 0.389999 -0.350000
v -0.068282 0.389999 -0.343275
v -0.133939 0.389999 -0.323358
v -0.068282 14.690001 -0.343275
v -0.133939 14.690001 -0.323358
v -0.194450 14.690001 -0.291014
v -0.247487 14.690001 -0.247487
v -0.194450 0.389999 -0.291014
v -0.247487 0.389999 -0.247487
v -0.291014 0.389999 -0.194449
v -0.323358 0.389999 -0.133939
v -0.291014 14.690001 -0.194450
v -0.323358 14.690001 -0.133939
v -0.343275 14.690001 -0.068282
v -0.350000 14.690001 0.000000
v -0.343275 0.389999 -0.068282
v -0.350000 0.389999 0.000000
v -0.343275 0.389999 0.068282
v -0.323358 0.389999 0.133939
v -0.343275 14.690001 0.068282
v -0.323358 14.690001 0.133939
v -0.291014 14.690001 0.194450
v -0.247487 14.690001 0.247487
v -0.291014 0.389999 0.194450
v -0.247487 0.389999 0.247487
v -0.194450 0.389999 0.291014
v -0.133939 0.389999 0.323358
v -0.194450 14.690001 0.291014
v -0.133939 14.690001 0.323358
v -0.068282 14.690001 0.343275
vn -0.3620 -0.8788 0.3110
vn -0.7657 -0.6036 0.2221
vn -0.9009 -0.4031 0.1609
vn -0.9524 -0.2775 0.1264
vn -0.9757 -0.1915 0.1063
vn -0.9875 -0.1262 0.0943
vn -0.9936 -0.0721 0.0874
vn -0.9962 -0.0235 0.0843
vn -0.9962 0.0235 0.0843
vn -0.9936 0.0721 0.0874
vn -0.9875 0.1262 0.0943
vn -0.9757 0.1915 0.1063
vn -0.9524 0.2775 0.1264
vn -0.9009 0.4031 0.1609
vn -0.7657 0.6036 0.2221
vn -0.3620 0.8788 0.3110
vn 0.3620 0.8788 0.3110
vn 0.7657 0.6036 0.2221
vn 0.9009 0.4031 0.1609
vn 0.9524 0.2775 0.1264
vn 0.9757 0.1915 0.1063
vn 0.9875 0.1262 0.0943
vn 0.9936 0.0721 0.0874
vn 0.9962 0.0235 0.0843
vn 0.9962 -0.0235 0.0843
vn 0.9936 -0.0721 0.0874
vn 0.9875 -0.1262 0.0943
vn 0.9757 -0.1915 0.1063
vn 0.9524 -0.2775 0.1264
vn 0.9009 -0.4031 0.1609
vn -0.0000 -0.0000 -1.0000
vn 0.7657 -0.6036 0.2221
vn 0.3620 -0.8788 0.3110
vn -0.0000 -0.0000 1.0000
vn -1.0000 -0.0000 -0.0000
vn -0.0000 1.0000 -0.0000
vn 1.0000 -0.0000 -0.0000
vn -0.0000 -1.0000 -0.0000
vn -0.0980 -0.0000 0.9952
vn 0.0980 -0.0000 0.9952
vn 0.2903 -0.0000 0.9569
vn 0.4714 -0.0000 0.8819
vn 0.6344 -0.0000 0.7730
vn 0.7730 -0.0000 0.6344
vn 0.8819 -0.0000 0.4714
vn 0.9569 -0.0000 0.2903
vn 0.9952 -0.0000 0.0980
vn 0.9952 -0.0000 -0.0980
vn 0.9569 -0.0000 -0.2903
vn 0.8819 -0.0000 -0.4714
vn 0.7730 -0.0000 -0.6344
vn 0.6344 -0.0000 -0.7730
vn 0.4714 -0.0000 -0.8819
vn 0.2903 -0.0000 -0.9569
vn 0.0980 -0.0000 -0.9952
vn -0.0980 -0.0000 -0.9952
vn -0.2903 -0.0000 -0.9569
vn -0.4714 -0.0000 -0.8819
vn -0.6344 -0.0000 -0.7730
vn -0.7730 -0.0000 -0.6344
vn -0.8819 -0.0000 -0.4714
vn -0.9569 -0.0000 -0.2903
vn -0.9952 -0.0000 -0.0980
vn -0.9952 -0.0000 0.0980
vn -0.9569 -0.0000 0.2903
vn -0.8819 -0.0000 0.4714
vn -0.7730 -0.0000 0.6344
vn -0.6344 -0.0000 0.7730
vn -0.4714 -0.0000 0.8819
vn -0.2903 -0.0000 0.9569
vn -0.0001 1.0000 -0.0000
vn 0.0001 1.0000 -0.0000
vn -0.0003 1.0000 -0.0000
vt 0.200265 0.031030
vt 0.306215 0.139391
vt 0.193644 0.039819
vt 0.186922 0.053870
vt 0.180435 0.074096
vt 0.176026 0.100110
vt 0.176026 0.130615
vt 0.182550 0.163468
vt 0.196870 0.195854
vt 0.218947 0.224717
vt 0.247307 0.247438
vt 0.279362 0.262483
vt 0.312061 0.269744
vt 0.342557 0.270431
vt 0.368664 0.266608
vt 0.389031 0.260578
vt 0.403229 0.254173
vt 0.412165 0.247752
vt 0.418786 0.238962
vt 0.425509 0.224912
vt 0.431995 0.204685
vt 0.436404 0.178671
vt 0.436404 0.148167
vt 0.429880 0.115313
vt 0.415560 0.082928
vt 0.393483 0.054064
vt 0.365123 0.031344
vt 0.333068 0.016299
vt 0.300370 0.009037
vt 0.269873 0.008351
vt 0.243767 0.012174
vt 0.223399 0.018204
vt 0.200946 0.475145
vt 0.176026 0.399981
vt 0.196477 0.288851
vt 0.209201 0.024608
vt 0.468690 0.435447
vt 0.231898 0.371501
vt 0.342737 0.500555
vt 0.404357 0.351736
vt 0.238099 0.351736
vt 0.341921 0.329687
vt 0.308049 0.326351
vt 0.311385 0.292480
vt 0.159324 0.991649
vt 0.154606 0.008351
vt 0.159324 0.008351
vt 0.013069 0.991649
vt 0.008351 0.008351
vt 0.013069 0.008351
vt 0.017787 0.991649
vt 0.017787 0.008351
vt 0.240824 0.299738
vt 0.273395 0.289859
vt 0.283274 0.322429
vt 0.022505 0.991649
vt 0.022505 0.008351
vt 0.027223 0.991649
vt 0.027223 0.008351
vt 0.031941 0.991649
vt 0.031941 0.008351
vt 0.036658 0.991649
vt 0.036659 0.008351
vt 0.041376 0.991649
vt 0.041376 0.008351
vt 0.046094 0.991649
vt 0.046094 0.008351
vt 0.050812 0.991649
vt 0.050812 0.008351
vt 0.055530 0.991649
vt 0.055530 0.008351
vt 0.060248 0.991649
vt 0.060248 0.008351
vt 0.064966 0.991649
vt 0.064966 0.008351
vt 0.069684 0.991649
vt 0.069684 0.008351
vt 0.074402 0.991649
vt 0.074402 0.008351
vt 0.079120 0.991649
vt 0.079120 0.008351
vt 0.083838 0.991649
vt 0.083838 0.008351
vt 0.088555 0.991649
vt 0.088555 0.008351
vt 0.093273 0.991649
vt 0.093273 0.008351
vt 0.097991 0.991649
vt 0.097991 0.008351
vt 0.102709 0.991649
vt 0.102709 0.008351
vt 0.107427 0.991649
vt 0.107427 0.008351
vt 0.112145 0.991649
vt 0.112145 0.008351
vt 0.116863 0.991649
vt 0.116863 0.008351
vt 0.121581 0.991649
vt 0.121581 0.008351
vt 0.126299 0.991649
vt 0.126299 0.008351
vt 0.131017 0.991649
vt 0.131017 0.008351
vt 0.135734 0.991649
vt 0.135734 0.008351
vt 0.140452 0.991649
vt 0.140452 0.008351
vt 0.145170 0.991649
vt 0.145170 0.008351
vt 0.149888 0.991649
vt 0.149888 0.008351
vt 0.154606 0.991649
vt 0.200946 0.287133
vt 0.205328 0.289060
vt 0.209457 0.294558
vt 0.213172 0.303417
vt 0.216332 0.315296
vt 0.218815 0.329738
vt 0.220525 0.346188
vt 0.221396 0.364015
vt 0.221396 0.382532
vt 0.220525 0.401029
vt 0.218815 0.418795
vt 0.216332 0.435147
vt 0.213172 0.449456
vt 0.209457 0.461173
vt 0.205328 0.469847
vt 0.196477 0.476863
vt 0.192094 0.474936
vt 0.187966 0.469438
vt 0.184250 0.460579
vt 0.181091 0.448700
vt 0.178608 0.434258
vt 0.176898 0.417808
vt 0.176026 0.381464
vt 0.176898 0.362967
vt 0.178608 0.345201
vt 0.181091 0.328849
vt 0.184250 0.314540
vt 0.187966 0.302824
vt 0.192094 0.294149
vt 0.315308 0.289859
vt 0.319667 0.288053
vt 0.324294 0.287133
vt 0.329012 0.287133
vt 0.333639 0.288053
vt 0.337998 0.289859
vt 0.341921 0.292480
vt 0.345257 0.295816
vt 0.347878 0.299738
vt 0.349684 0.304097
vt 0.350604 0.308725
vt 0.350604 0.313442
vt 0.349684 0.318070
vt 0.347878 0.322428
vt 0.345257 0.326351
vt 0.337998 0.332308
vt 0.333639 0.334114
vt 0.329012 0.335034
vt 0.324294 0.335034
vt 0.319667 0.334114
vt 0.315308 0.332308
vt 0.311385 0.329687
vt 0.305428 0.322428
vt 0.303623 0.318070
vt 0.302702 0.313442
vt 0.302702 0.308725
vt 0.303623 0.304097
vt 0.305428 0.299739
vt 0.308049 0.295816
vt 0.008351 0.991649
vt 0.280653 0.326351
vt 0.277317 0.329688
vt 0.273394 0.332309
vt 0.269035 0.334114
vt 0.264408 0.335034
vt 0.259690 0.335034
vt 0.255063 0.334114
vt 0.250704 0.332308
vt 0.246781 0.329687
vt 0.243445 0.326351
vt 0.240824 0.322428
vt 0.239019 0.318069
vt 0.238099 0.313442
vt 0.238099 0.308724
vt 0.239019 0.304097
vt 0.243446 0.295816
vt 0.246782 0.292479
vt 0.250705 0.289858
vt 0.255063 0.288053
vt 0.259691 0.287133
vt 0.264408 0.287133
vt 0.269036 0.288053
vt 0.277317 0.292480
vt 0.280653 0.295816
vt 0.283275 0.299739
vt 0.285080 0.304098
vt 0.286000 0.308725
vt 0.286000 0.313443
vt 0.285080 0.318070
s 0
usemtl Material
f 1/1/1 33/2/1 2/3/1
f 2/3/2 33/2/2 3/4/2
f 3/4/3 33/2/3 4/5/3
f 4/5/4 33/2/4 5/6/4
f 5/6/5 33/2/5 6/7/5
f 6/7/6 33/2/6 7/8/6
f 7/8/7 33/2/7 8/9/7
f 8/9/8 33/2/8 9/10/8
f 9/10/9 33/2/9 10/11/9
f 10/11/10 33/2/10 11/12/10
f 11/12/11 33/2/11 12/13/11
f 12/13/12 33/2/12 13/14/12
f 13/14/13 33/2/13 14/15/13
f 14/15/14 33/2/14 15/16/14
f 15/16/15 33/2/15 16/17/15
f 16/17/16 33/2/16 17/18/16
f 17/18/17 33/2/17 18/19/17
f 18/19/18 33/2/18 19/20/18
f 19/20/19 33/2/19 20/21/19
f 20/21/20 33/2/20 21/22/20
f 21/22/21 33/2/21 22/23/21
f 22/23/22 33/2/22 23/24/22
f 23/24/23 33/2/23 24/25/23
f 24/25/24 33/2/24 25/26/24
f 25/26/25 33/2/25 26/27/25
f 26/27/26 33/2/26 27/28/26
f 27/28/27 33/2/27 28/29/27
f 28/29/28 33/2/28 29/30/28
f 29/30/29 33/2/29 30/31/29
f 30/31/30 33/2/30 31/32/30
f 16/33/31 24/34/31 32/35/31
f 31/32/32 33/2/32 32/36/32
f 32/36/33 33/2/33 1/1/33
f 37/37/34 35/38/34 38/39/34
f 34/40/35 41/41/35 35/38/35
f 37/37/36 36/41/36 34/40/36
f 39/41/37 38/39/37 40/41/37
f 36/41/31 40/41/31 41/41/31
f 35/38/38 40/41/38 38/39/38
f 77/42/38 61/43/38 45/44/38
f 44/45/39 43/46/39 42/47/39
f 47/48/40 42/49/40 45/50/40
f 48/51/41 45/50/41 46/52/41
f 72/53/36 88/54/36 104/55/36
f 49/56/42 46/52/42 51/57/42
f 50/58/43 51/57/43 52/59/43
f 55/60/44 52/59/44 53/61/44
f 56/62/45 53/61/45 54/63/45
f 57/64/46 54/63/46 59/65/46
f 58/66/47 59/65/47 60/67/47
f 63/68/48 60/67/48 61/69/48
f 64/70/49 61/69/49 62/71/49
f 65/72/50 62/71/50 67/73/50
f 66/74/51 67/73/51 68/75/51
f 71/76/52 68/75/52 69/77/52
f 72/78/53 69/77/53 70/79/53
f 73/80/54 70/79/54 75/81/54
f 74/82/55 75/81/55 76/83/55
f 79/84/56 76/83/56 77/85/56
f 80/86/57 77/85/57 78/87/57
f 81/88/58 78/87/58 83/89/58
f 82/90/59 83/89/59 84/91/59
f 87/92/60 84/91/60 85/93/60
f 88/94/61 85/93/61 86/95/61
f 89/96/62 86/95/62 91/97/62
f 90/98/63 91/97/63 92/99/63
f 95/100/64 92/99/64 93/101/64
f 96/102/65 93/101/65 94/103/65
f 97/104/66 94/103/66 99/105/66
f 98/106/67 99/105/67 100/107/67
f 103/108/68 100/107/68 101/109/68
f 104/110/69 101/109/69 102/111/69
f 105/112/70 102/111/70 43/46/70
f 32/35/31 1/113/31 2/114/31
f 2/114/31 3/115/31 4/116/31
f 4/116/31 5/117/31 6/118/31
f 6/118/31 7/119/31 8/120/31
f 8/120/31 9/121/31 10/122/31
f 10/122/31 11/123/31 12/124/31
f 12/124/31 13/125/31 14/126/31
f 14/126/31 15/127/31 16/33/31
f 16/33/31 17/128/31 18/129/31
f 18/129/31 19/130/31 20/131/31
f 20/131/31 21/132/31 22/133/31
f 22/133/31 23/134/31 24/34/31
f 24/34/31 25/135/31 26/136/31
f 26/136/31 27/137/31 28/138/31
f 28/138/31 29/139/31 30/140/31
f 30/140/31 31/141/31 32/35/31
f 32/35/31 2/114/31 4/116/31
f 4/116/31 6/118/31 8/120/31
f 8/120/31 10/122/31 12/124/31
f 12/124/31 14/126/31 16/33/31
f 16/33/31 18/129/31 20/131/31
f 20/131/31 22/133/31 24/34/31
f 24/34/31 26/136/31 28/138/31
f 28/138/31 30/140/31 32/35/31
f 32/35/31 4/116/31 8/120/31
f 8/120/31 12/124/31 16/33/31
f 16/33/31 20/131/31 24/34/31
f 24/34/31 28/138/31 32/35/31
f 32/35/31 8/120/31 16/33/31
f 37/37/34 34/40/34 35/38/34
f 34/40/35 36/41/35 41/41/35
f 37/37/36 39/41/36 36/41/36
f 39/41/37 37/37/37 38/39/37
f 36/41/31 39/41/31 40/41/31
f 35/38/38 41/41/38 40/41/38
f 45/44/38 42/142/38 43/143/38
f 43/143/38 102/144/38 101/145/38
f 101/145/38 100/146/38 99/147/38
f 99/147/38 94/148/38 93/149/38
f 93/149/38 92/150/38 91/151/38
f 91/151/38 86/152/38 85/153/38
f 85/153/38 84/154/38 83/155/38
f 83/155/38 78/156/38 77/42/38
f 77/42/38 76/157/38 75/158/38
f 75/158/38 70/159/38 69/160/38
f 69/160/38 68/161/38 67/162/38
f 67/162/38 62/163/38 61/43/38
f 61/43/38 60/164/38 59/165/38
f 59/165/38 54/166/38 53/167/38
f 53/167/38 52/168/38 51/169/38
f 51/169/38 46/170/38 45/44/38
f 45/44/38 43/143/38 101/145/38
f 101/145/38 99/147/38 93/149/38
f 93/149/38 91/151/38 85/153/38
f 85/153/38 83/155/38 77/42/38
f 77/42/38 75/158/38 69/160/38
f 69/160/38 67/162/38 61/43/38
f 61/43/38 59/165/38 53/167/38
f 53/167/38 51/169/38 45/44/38
f 45/44/38 101/145/38 93/149/38
f 93/149/38 85/153/38 77/42/38
f 77/42/38 69/160/38 61/43/38
f 61/43/38 53/167/38 45/44/38
f 45/44/38 93/149/38 77/42/38
f 44/45/39 105/112/39 43/46/39
f 47/48/40 44/171/40 42/49/40
f 48/51/41 47/48/41 45/50/41
f 104/55/36 105/172/36 44/173/36
f 44/173/36 47/174/36 48/175/36
f 48/175/71 49/176/71 50/177/71
f 50/177/36 55/178/36 56/179/36
f 56/179/36 57/180/36 58/181/36
f 58/181/72 63/182/72 64/183/72
f 64/183/71 65/184/71 66/185/71
f 66/185/36 71/186/36 72/53/36
f 72/53/36 73/187/36 74/188/36
f 74/188/36 79/189/36 80/190/36
f 80/190/36 81/191/36 82/192/36
f 82/192/72 87/193/72 88/54/72
f 88/54/73 89/194/73 90/195/73
f 90/195/71 95/196/71 96/197/71
f 96/197/36 97/198/36 98/199/36
f 98/199/72 103/200/72 104/55/72
f 104/55/36 44/173/36 48/175/36
f 48/175/36 50/177/36 56/179/36
f 56/179/36 58/181/36 64/183/36
f 64/183/36 66/185/36 72/53/36
f 72/53/36 74/188/36 80/190/36
f 80/190/36 82/192/36 88/54/36
f 88/54/36 90/195/36 96/197/36
f 96/197/36 98/199/36 104/55/36
f 104/55/36 48/175/36 56/179/36
f 56/179/36 64/183/36 72/53/36
f 72/53/36 80/190/36 88/54/36
f 88/54/36 96/197/36 104/55/36
f 104/55/36 56/179/36 72/53/36
f 49/56/42 48/51/42 46/52/42
f 50/58/43 49/56/43 51/57/43
f 55/60/44 50/58/44 52/59/44
f 56/62/45 55/60/45 53/61/45
f 57/64/46 56/62/46 54/63/46
f 58/66/47 57/64/47 59/65/47
f 63/68/48 58/66/48 60/67/48
f 64/70/49 63/68/49 61/69/49
f 65/72/50 64/70/50 62/71/50
f 66/74/51 65/72/51 67/73/51
f 71/76/52 66/74/52 68/75/52
f 72/78/53 71/76/53 69/77/53
f 73/80/54 72/78/54 70/79/54
f 74/82/55 73/80/55 75/81/55
f 79/84/56 74/82/56 76/83/56
f 80/86/57 79/84/57 77/85/57
f 81/88/58 80/86/58 78/87/58
f 82/90/59 81/88/59 83/89/59
f 87/92/60 82/90/60 84/91/60
f 88/94/61 87/92/61 85/93/61
f 89/96/62 88/94/62 86/95/62
f 90/98/63 89/96/63 91/97/63
f 95/100/64 90/98/64 92/99/64
f 96/102/65 95/100/65 93/101/65
f 97/104/66 96/102/66 94/103/66
f 98/106/67 97/104/67 99/105/67
f 103/108/68 98/106/68 100/107/68
f 104/110/69 103/108/69 101/109/69
f 105/112/70 104/110/70 102/111/70
