# Blender 4.1.1
# www.blender.org
mtllib skydome.mtl
o 球
v 0.000000 490.392609 -97.545242
v 0.000000 461.939728 -191.341782
v 0.000000 415.734741 -277.785187
v 0.000000 353.553345 -353.553467
v 0.000000 277.785065 -415.734863
v 0.000000 191.341644 -461.939728
v 0.000000 97.545097 -490.392609
v 0.000000 -277.785156 -415.734772
v 0.000000 -353.553467 -353.553345
v 0.000000 -415.734894 -277.785034
v -19.030127 490.392609 -95.670929
v -37.328930 461.939728 -187.665222
v -54.193199 415.734741 -272.447601
v -68.974854 353.553345 -346.760010
v -81.105843 277.785065 -407.746613
v -90.119980 191.341644 -453.063690
v -95.670860 97.545097 -480.969849
v -97.545166 -0.000096 -490.392609
v -95.670860 -97.545242 -480.969849
v -90.119995 -191.341766 -453.063721
v -81.105850 -277.785156 -407.746521
v -68.974854 -353.553467 -346.759888
v -54.193192 -415.734894 -272.447479
v -37.328930 -461.939728 -187.665100
v -19.030127 -490.392639 -95.670776
v -37.328934 490.392609 -90.120049
v -73.223328 461.939728 -176.776779
v -106.303780 415.734741 -256.640015
v -135.299042 353.553345 -326.640808
v -159.094833 277.785065 -384.088867
v -176.776718 191.341644 -426.776703
v -187.665161 97.545113 -453.063690
v -191.341736 -0.000092 -461.939728
v -187.665161 -97.545227 -453.063690
v -176.776718 -191.341766 -426.776703
v -159.094864 -277.785156 -384.088806
v -135.299042 -353.553467 -326.640686
v -106.303772 -415.734894 -256.639893
v -73.223328 -461.939728 -176.776657
v -37.328930 -490.392639 -90.119888
v -54.193207 490.392609 -81.105896
v -106.303787 461.939728 -159.094894
v -154.329163 415.734741 -230.969910
v -196.423767 353.553345 -293.968933
v -230.969864 277.785065 -345.670837
v -256.639984 191.341644 -384.088867
v -272.447540 97.545113 -407.746552
v -277.785126 -0.000085 -415.734741
v -272.447540 -97.545227 -407.746552
v -256.640015 -191.341766 -384.088867
v -230.969925 -277.785156 -345.670746
v -196.423767 -353.553467 -293.968811
v -154.329147 -415.734894 -230.969788
v -106.303795 -461.939728 -159.094772
v -54.193199 -490.392639 -81.105743
v -68.974869 490.392609 -68.974907
v -135.299072 461.939728 -135.299072
v -196.423767 415.734802 -196.423767
v -250.000000 353.553345 -250.000046
v -293.968842 277.785065 -293.968903
v -326.640747 191.341644 -326.640686
v -346.759949 97.545128 -346.759918
v -353.553406 -0.000075 -353.553314
v -346.759949 -97.545212 -346.759918
v -326.640778 -191.341766 -326.640747
v -293.968933 -277.785156 -293.968781
v -250.000000 -353.553467 -249.999924
v -196.423767 -415.734833 -196.423645
v -135.299072 -461.939728 -135.298965
v -68.974861 -490.392639 -68.974747
v -81.105865 490.392609 -54.193245
v -159.094879 461.939728 -106.303818
v -230.969910 415.734802 -154.329147
v -293.968872 353.553406 -196.423767
v -345.670807 277.785065 -230.969849
v -384.088867 191.341675 -256.639954
v -407.746552 97.545128 -272.447479
v -415.734802 -0.000064 -277.785004
v -407.746552 -97.545212 -272.447479
v -384.088928 -191.341736 -256.639954
v -345.670837 -277.785156 -230.969788
v -293.968872 -353.553406 -196.423645
v -230.969879 -415.734833 -154.329025
v -159.094879 -461.939728 -106.303680
v -81.105865 -490.392639 -54.193085
v -90.120003 490.392609 -37.328968
v -176.776749 461.939728 -73.223351
v -256.639984 415.734802 -106.303772
v -326.640747 353.553406 -135.299057
v -384.088806 277.785126 -159.094788
v -426.776672 191.341675 -176.776703
v -453.063660 97.545143 -187.665085
v -461.939697 -0.000051 -191.341614
v -453.063660 -97.545197 -187.665085
v -426.776733 -191.341736 -176.776627
v -384.088867 -277.785095 -159.094727
v -326.640747 -353.553406 -135.298935
v -256.639984 -415.734833 -106.303650
v -176.776764 -461.939728 -73.223206
v -90.119995 -490.392639 -37.328808
v -95.670883 490.392609 -19.030159
v -187.665192 461.939728 -37.328938
v -272.447540 415.734802 -54.193192
v -346.759949 353.553406 -68.974869
v -407.746521 277.785126 -81.105835
v -453.063660 191.341705 -90.119995
v -480.969818 97.545158 -95.670822
v -490.392517 -0.000037 -97.545059
v -480.969818 -97.545181 -95.670792
v -453.063782 -191.341705 -90.119888
v -407.746521 -277.785095 -81.105728
v -346.759949 -353.553406 -68.974777
v -272.447540 -415.734833 -54.193069
v -187.665222 -461.939728 -37.328812
v -95.670868 -490.392639 -19.030008
v -97.545181 490.392609 -0.000040
v -191.341766 461.939728 -0.000009
v -277.785065 415.734802 -0.000006
v -353.553345 353.553406 -0.000030
v -415.734711 277.785126 0.000004
v -461.939697 191.341705 -0.000020
v -490.392578 97.545174 0.000031
v -499.999847 -0.000022 0.000083
v -490.392578 -97.545166 0.000060
v -461.939758 -191.341705 0.000104
v -415.734741 -277.785095 0.000095
v -353.553345 -353.553406 0.000076
v -277.785065 -415.734833 0.000119
v -191.341782 -461.939728 0.000119
v -97.545174 -490.392639 0.000112
v -95.670883 490.392609 19.030083
v -187.665176 461.939728 37.328915
v -272.447479 415.734802 54.193172
v -346.759918 353.553406 68.974815
v -407.746460 277.785126 81.105820
v -453.063629 191.341705 90.119942
v -480.969788 97.545189 95.670876
v -490.392456 -0.000007 97.545212
v -480.969788 -97.545151 95.670906
v -453.063721 -191.341705 90.120087
v -407.746521 -277.785095 81.105927
v -346.759918 -353.553406 68.974907
v -272.447479 -415.734833 54.193295
v -187.665222 -461.939728 37.329048
v -95.670868 -490.392639 19.030230
v -90.119995 490.392609 37.328880
v -176.776733 461.939728 73.223305
v -256.639893 415.734802 106.303734
v -326.640686 353.553406 135.298965
v -384.088745 277.785126 159.094803
v -426.776611 191.341736 176.776642
v -453.063629 97.545204 187.665161
v -461.939545 0.000007 191.341721
v -453.063629 -97.545135 187.665161
v -426.776703 -191.341675 176.776794
v -384.088776 -277.785095 159.094864
v -326.640686 -353.553406 135.299088
v -256.639893 -415.734833 106.303856
v -176.776749 -461.939728 73.223457
v -90.119995 -490.392639 37.329033
v -81.105850 490.392609 54.193153
v -159.094864 461.939728 106.303772
v -230.969818 415.734802 154.329086
v -293.968842 353.553406 196.423676
v -345.670746 277.785187 230.969818
v -384.088776 191.341736 256.639954
v -407.746460 97.545219 272.447540
v -415.734558 0.000020 277.785095
v -407.746460 -97.545120 272.447540
v -384.088867 -191.341675 256.640045
v -345.670776 -277.785034 230.969894
v -293.968842 -353.553406 196.423798
v -230.969818 -415.734833 154.329208
v -159.094864 -461.939728 106.303925
v -81.105843 -490.392639 54.193306
v -68.974854 490.392609 68.974815
v -135.299042 461.939728 135.299057
v -196.423660 415.734802 196.423676
v -249.999985 353.553467 249.999939
v -293.968781 277.785187 293.968781
v -326.640656 191.341766 326.640686
v -346.759888 97.545219 346.759918
v -353.553131 0.000031 353.553314
v -346.759888 -97.545120 346.759918
v -326.640686 -191.341644 326.640778
v -293.968781 -277.785034 293.968903
v -249.999985 -353.553345 250.000061
v -196.423660 -415.734833 196.423798
v -135.299057 -461.939728 135.299179
v -68.974846 -490.392639 68.974960
v -54.193195 490.392609 81.105812
v -106.303780 461.939728 159.094833
v -154.329086 415.734863 230.969803
v -196.423721 353.553467 293.968811
v -230.969788 277.785187 345.670715
v -256.639923 191.341766 384.088806
v -272.447449 97.545235 407.746521
v -277.784851 0.000041 415.734680
v -272.447449 -97.545105 407.746521
v -256.639923 -191.341644 384.088898
v -230.969818 -277.785034 345.670837
v -196.423721 -353.553345 293.968933
v -154.329086 -415.734772 230.969925
v -106.303787 -461.939728 159.094955
v -54.193188 -490.392639 81.105949
v -37.328918 490.392609 90.119949
v -73.223312 461.939728 176.776703
v -106.303711 415.734863 256.639893
v -135.299026 353.553467 326.640686
v -159.094757 277.785187 384.088684
v -176.776657 191.341766 426.776611
v -187.665024 97.545235 453.063629
v -191.341492 0.000048 461.939575
v -187.665024 -97.545105 453.063629
v -176.776642 -191.341644 426.776703
v -159.094757 -277.785034 384.088837
v -135.299026 -353.553345 326.640808
v -106.303711 -415.734772 256.640015
v -73.223328 -461.939728 176.776825
v -37.328915 -490.392639 90.120087
v -19.030117 490.392609 95.670822
v -37.328911 461.939728 187.665161
v -54.193146 415.734863 272.447479
v -68.974861 353.553467 346.759888
v -81.105797 277.785187 407.746368
v -90.119965 191.341766 453.063629
v -95.670784 97.545250 480.969727
v -97.544975 0.000052 490.392395
v -95.670784 -97.545090 480.969727
v -90.119919 -191.341644 453.063721
v -81.105797 -277.785034 407.746521
v -68.974861 -353.553345 346.760010
v -54.193146 -415.734772 272.447601
v -37.328926 -461.939728 187.665283
v -19.030115 -490.392639 95.670967
v -0.000001 490.392609 97.545128
v 0.000014 461.939728 191.341721
v 0.000033 415.734863 277.785004
v -0.000024 353.553467 353.553284
v 0.000006 277.785187 415.734558
v -0.000009 191.341766 461.939667
v 0.000036 97.545250 490.392487
v 0.000133 0.000053 499.999695
v 0.000036 -97.545090 490.392487
v 0.000059 -191.341644 461.939728
v 0.000022 -277.785034 415.734741
v -0.000024 -353.553345 353.553406
v 0.000033 -415.734772 277.785126
v -0.000001 -461.939728 191.341843
v 0.000001 -490.392639 97.545273
v 19.030115 490.392609 95.670822
v 37.328938 461.939728 187.665131
v 54.193199 415.734863 272.447418
v 68.974808 353.553467 346.759857
v 81.105804 277.785187 407.746338
v 90.119942 191.341766 453.063629
v 95.670853 97.545250 480.969696
v 97.545235 0.000052 490.392303
v 95.670853 -97.545090 480.969696
v 90.120026 -191.341644 453.063690
v 81.105820 -277.785034 407.746490
v 68.974808 -353.553345 346.759979
v 54.193199 -415.734772 272.447540
v 37.328918 -461.939728 187.665253
v 19.030113 -490.392639 95.670967
v 37.328915 490.392609 90.119942
v 73.223328 461.939728 176.776672
v 106.303757 415.734863 256.639832
v 135.298965 353.553467 326.640625
v 159.094727 277.785187 384.088654
v 176.776611 191.341766 426.776581
v 187.665085 97.545235 453.063538
v 191.341705 0.000048 461.939392
v 187.665085 -97.545105 453.063538
v 176.776718 -191.341644 426.776672
v 159.094757 -277.785034 384.088806
v 135.298965 -353.553345 326.640747
v 106.303757 -415.734772 256.639954
v 73.223312 -461.939728 176.776794
v 37.328911 -490.392639 90.120079
v 54.193184 490.392609 81.105797
v 106.303787 461.939728 159.094803
v 154.329102 415.734863 230.969727
v 196.423660 353.553467 293.968781
v 230.969757 277.785187 345.670685
v 256.639893 191.341766 384.088776
v 272.447479 97.545235 407.746399
v 277.785034 0.000041 415.734406
v 272.447479 -97.545105 407.746399
v 256.639984 -191.341644 384.088806
v 230.969772 -277.785034 345.670837
v 196.423660 -353.553345 293.968903
v 154.329102 -415.734772 230.969849
v 106.303780 -461.939728 159.094925
v 54.193176 -490.392639 81.105942
v 68.974838 490.392609 68.974800
v 135.299042 461.939728 135.298981
v 196.423660 415.734802 196.423584
v 249.999908 353.553467 249.999908
v 293.968750 277.785187 293.968719
v 326.640625 191.341766 326.640656
v 346.759827 97.545219 346.759796
v 353.553223 0.000031 353.553009
v 346.759827 -97.545120 346.759796
v 326.640747 -191.341644 326.640656
v 293.968781 -277.785034 293.968842
v 249.999908 -353.553345 250.000031
v 196.423660 -415.734833 196.423706
v 135.299026 -461.939728 135.299103
v 68.974831 -490.392639 68.974945
v 81.105820 490.392609 54.193146
v 159.094833 461.939728 106.303703
v 230.969772 415.734802 154.328995
v 293.968781 353.553406 196.423660
v 345.670654 277.785187 230.969788
v 384.088745 191.341736 256.639923
v 407.746399 97.545219 272.447418
v 415.734558 0.000020 277.784729
v 407.746399 -97.545120 272.447418
v 384.088867 -191.341675 256.639893
v 345.670715 -277.785034 230.969849
v 293.968781 -353.553406 196.423782
v 230.969772 -415.734833 154.329117
v 159.094818 -461.939728 106.303856
v 81.105820 -490.392639 54.193291
v 0.000040 500.000000 -0.000015
v 90.119965 490.392609 37.328876
v 176.776672 461.939728 73.223251
v 256.639832 415.734802 106.303650
v 326.640625 353.553406 135.298965
v 384.088684 277.785126 159.094757
v 426.776550 191.341736 176.776627
v 453.063507 97.545204 187.665024
v 461.939423 0.000007 191.341370
v 453.063507 -97.545135 187.665024
v 426.776672 -191.341675 176.776642
v 384.088715 -277.785095 159.094818
v 326.640625 -353.553406 135.299088
v 256.639832 -415.734833 106.303772
v 176.776657 -461.939728 73.223404
v 90.119949 -490.392639 37.329021
v 95.670845 490.392609 19.030077
v 187.665100 461.939728 37.328869
v 272.447418 415.734802 54.193096
v 346.759888 353.553406 68.974823
v 407.746399 277.785126 81.105774
v 453.063599 191.341705 90.119919
v 480.969604 97.545189 95.670761
v 490.392212 -0.000007 97.544876
v 480.969604 -97.545151 95.670792
v 453.063629 -191.341705 90.119934
v 407.746399 -277.785095 81.105865
v 346.759888 -353.553406 68.974915
v 272.447418 -415.734833 54.193218
v 187.665085 -461.939728 37.329010
v 95.670822 -490.392639 19.030220
v 97.545135 490.392609 -0.000038
v 191.341675 461.939728 -0.000047
v 277.784943 415.734802 -0.000066
v 353.553284 353.553406 -0.000008
v 415.734589 277.785126 -0.000019
v 461.939636 191.341705 -0.000028
v 490.392395 97.545174 -0.000051
v 499.999542 -0.000022 -0.000193
v 490.392395 -97.545166 -0.000022
v 461.939667 -191.341705 -0.000030
v 415.734589 -277.785095 0.000057
v 353.553284 -353.553406 0.000099
v 277.784943 -415.734833 0.000060
v 191.341644 -461.939728 0.000100
v 97.545128 -490.392639 0.000109
v 95.670837 490.392609 -19.030149
v 187.665085 461.939728 -37.328953
v 272.447388 415.734802 -54.193218
v 346.759827 353.553406 -68.974823
v 407.746338 277.785126 -81.105820
v 453.063538 191.341705 -90.119972
v 480.969604 97.545158 -95.670868
v 490.392120 -0.000037 -97.545258
v 480.969604 -97.545181 -95.670837
v 453.063629 -191.341705 -90.119987
v 407.746338 -277.785095 -81.105743
v 346.759827 -353.553406 -68.974731
v 272.447388 -415.734833 -54.193096
v 187.665070 -461.939728 -37.328808
v 95.670815 -490.392639 -19.030003
v 90.119949 490.392609 -37.328949
v 176.776611 461.939728 -73.223335
v 256.639801 415.734802 -106.303757
v 326.640625 353.553406 -135.298996
v 384.088684 277.785126 -159.094757
v 426.776550 191.341675 -176.776642
v 453.063477 97.545143 -187.665085
v 461.939240 -0.000051 -191.341705
v 453.063477 -97.545197 -187.665085
v 426.776550 -191.341736 -176.776688
v 384.088684 -277.785095 -159.094696
v 326.640625 -353.553406 -135.298874
v 256.639801 -415.734833 -106.303635
v 176.776611 -461.939728 -73.223175
v 90.119934 -490.392639 -37.328793
v 81.105804 490.392609 -54.193214
v 159.094727 461.939728 -106.303787
v 230.969696 415.734802 -154.329102
v 293.968781 353.553406 -196.423691
v 345.670654 277.785065 -230.969757
v 384.088715 191.341675 -256.639862
v 407.746307 97.545128 -272.447449
v 415.734253 -0.000064 -277.785004
v 407.746307 -97.545212 -272.447449
v 384.088715 -191.341736 -256.639954
v 345.670654 -277.785156 -230.969696
v 293.968781 -353.553406 -196.423569
v 230.969696 -415.734833 -154.328979
v 159.094727 -461.939728 -106.303619
v 81.105797 -490.392639 -54.193054
v 68.974808 490.392609 -68.974869
v 135.298935 461.939728 -135.299011
v 196.423553 415.734802 -196.423645
v 249.999908 353.553345 -249.999924
v 293.968750 277.785065 -293.968781
v 326.640625 191.341644 -326.640625
v 346.759705 97.545128 -346.759796
v 353.552856 -0.000075 -353.553162
v 346.759705 -97.545212 -346.759796
v 326.640625 -191.341766 -326.640656
v 293.968750 -277.785156 -293.968658
v 249.999908 -353.553467 -249.999802
v 196.423553 -415.734833 -196.423523
v 135.298935 -461.939728 -135.298874
v 68.974800 -490.392639 -68.974701
v 54.193153 490.392609 -81.105850
v 106.303680 461.939728 -159.094788
v 154.328949 415.734741 -230.969757
v 196.423645 353.553345 -293.968811
v 230.969727 277.785065 -345.670685
v 256.639862 191.341644 -384.088715
v 272.447357 97.545113 -407.746399
v 277.784607 -0.000085 -415.734497
v 272.447357 -97.545227 -407.746399
v 256.639862 -191.341766 -384.088776
v 230.969727 -277.785156 -345.670563
v 196.423645 -353.553467 -293.968689
v 154.328949 -415.734894 -230.969635
v 106.303680 -461.939728 -159.094666
v 54.193150 -490.392639 -81.105682
v 37.328884 490.392609 -90.119980
v 73.223236 461.939728 -176.776657
v 106.303604 415.734741 -256.639801
v 135.298950 353.553345 -326.640656
v 159.094711 277.785065 -384.088654
v 176.776581 191.341644 -426.776550
v 187.664948 97.545113 -453.063507
v 191.341263 -0.000092 -461.939331
v 187.664948 -97.545227 -453.063507
v 176.776581 -191.341766 -426.776581
v 159.094711 -277.785156 -384.088531
v 135.298950 -353.553467 -326.640533
v 106.303604 -415.734894 -256.639679
v 73.223244 -461.939728 -176.776520
v 37.328884 -490.392639 -90.119812
v 19.030088 490.392609 -95.670853
v 37.328854 461.939728 -187.665085
v 54.193073 415.734741 -272.447327
v 68.974800 353.553345 -346.759857
v 81.105766 277.785065 -407.746338
v 90.119888 191.341644 -453.063507
v 95.670700 97.545097 -480.969604
v 97.544785 -0.000096 -490.392090
v 95.670700 -97.545242 -480.969604
v 90.119858 -191.341766 -453.063599
v 81.105766 -277.785156 -407.746216
v 68.974800 -353.553467 -346.759735
v 54.193073 -415.734894 -272.447205
v 37.328865 -461.939728 -187.664963
v 19.030092 -490.392639 -95.670685
v -0.000269 -0.000097 -499.999390
v -0.000113 -97.545242 -490.392334
v -0.000098 -191.341766 -461.939636
v -0.000035 -461.939728 -191.341507
v -0.000014 -490.392639 -97.544983
v 0.000000 -500.000000 0.000119
vn 0.0097 -0.9951 0.0980
vn 0.0097 0.9951 0.0980
vn 0.0975 0.0975 0.9904
vn 0.0286 -0.9565 0.2902
vn 0.0938 0.2890 0.9527
vn 0.0464 -0.8810 0.4709
vn 0.0865 0.4696 0.8786
vn 0.0624 -0.7715 0.6332
vn 0.0759 0.6326 0.7708
vn 0.0759 -0.6326 0.7708
vn 0.0624 0.7715 0.6332
vn 0.0865 -0.4696 0.8786
vn 0.0464 0.8810 0.4709
vn 0.0938 -0.2890 0.9527
vn 0.0286 0.9565 0.2902
vn 0.0975 -0.0975 0.9904
vn 0.2779 -0.2890 0.9161
vn 0.0846 0.9565 0.2790
vn 0.2889 -0.0975 0.9524
vn 0.0286 -0.9951 0.0942
vn 0.0286 0.9951 0.0942
vn 0.2889 0.0975 0.9524
vn 0.0846 -0.9565 0.2790
vn 0.2779 0.2890 0.9161
vn 0.1374 -0.8810 0.4528
vn 0.2563 0.4696 0.8448
vn 0.1847 -0.7715 0.6088
vn 0.2248 0.6326 0.7412
vn 0.2248 -0.6326 0.7412
vn 0.1847 0.7715 0.6088
vn 0.2563 -0.4696 0.8448
vn 0.1374 0.8810 0.4528
vn 0.4162 0.4696 0.7786
vn 0.2999 -0.7715 0.5611
vn 0.3651 0.6326 0.6831
vn 0.3651 -0.6326 0.6831
vn 0.2999 0.7715 0.5611
vn 0.4162 -0.4696 0.7786
vn 0.2231 0.8810 0.4173
vn 0.4513 -0.2890 0.8443
vn 0.1374 0.9565 0.2571
vn 0.4691 -0.0975 0.8777
vn 0.0464 -0.9951 0.0869
vn 0.0464 0.9951 0.0869
vn 0.4691 0.0975 0.8777
vn 0.1374 -0.9565 0.2571
vn 0.4513 0.2890 0.8443
vn 0.2230 -0.8810 0.4173
vn 0.1850 0.9565 0.2254
vn 0.6314 -0.0975 0.7693
vn 0.0625 -0.9951 0.0761
vn 0.0625 0.9951 0.0761
vn 0.6314 0.0975 0.7693
vn 0.1850 -0.9565 0.2254
vn 0.6073 0.2890 0.7400
vn 0.3002 -0.8810 0.3658
vn 0.5601 0.4696 0.6825
vn 0.4036 -0.7715 0.4918
vn 0.4913 0.6326 0.5987
vn 0.4913 -0.6326 0.5987
vn 0.4036 0.7715 0.4918
vn 0.5601 -0.4696 0.6825
vn 0.3002 0.8810 0.3658
vn 0.6073 -0.2890 0.7400
vn 0.5987 0.6326 0.4913
vn 0.5987 -0.6326 0.4913
vn 0.4918 0.7715 0.4036
vn 0.6825 -0.4696 0.5601
vn 0.3658 0.8810 0.3002
vn 0.7400 -0.2890 0.6073
vn 0.2254 0.9565 0.1850
vn 0.7693 -0.0975 0.6314
vn 0.0761 -0.9951 0.0625
vn 0.0761 0.9951 0.0625
vn 0.7693 0.0975 0.6314
vn 0.2254 -0.9565 0.1850
vn 0.7400 0.2890 0.6073
vn 0.3658 -0.8810 0.3002
vn 0.6825 0.4696 0.5601
vn 0.4918 -0.7715 0.4036
vn 0.0869 -0.9951 0.0464
vn 0.0869 0.9951 0.0464
vn 0.8777 0.0976 0.4691
vn 0.2571 -0.9565 0.1374
vn 0.8443 0.2890 0.4513
vn 0.4173 -0.8810 0.2230
vn 0.7786 0.4696 0.4162
vn 0.5611 -0.7715 0.2999
vn 0.6831 0.6326 0.3651
vn 0.6831 -0.6326 0.3651
vn 0.5611 0.7715 0.2999
vn 0.7786 -0.4696 0.4162
vn 0.4173 0.8810 0.2230
vn 0.8443 -0.2890 0.4513
vn 0.2571 0.9565 0.1374
vn 0.8777 -0.0975 0.4691
vn 0.7412 -0.6326 0.2248
vn 0.6088 0.7715 0.1847
vn 0.8448 -0.4696 0.2563
vn 0.4528 0.8810 0.1374
vn 0.9161 -0.2890 0.2779
vn 0.2790 0.9565 0.0846
vn 0.9524 -0.0975 0.2889
vn 0.0942 -0.9951 0.0286
vn 0.0942 0.9951 0.0286
vn 0.9524 0.0975 0.2889
vn 0.2790 -0.9565 0.0846
vn 0.9161 0.2890 0.2779
vn 0.4528 -0.8810 0.1374
vn 0.8448 0.4696 0.2563
vn 0.6088 -0.7715 0.1847
vn 0.7412 0.6326 0.2248
vn 0.9904 0.0975 0.0975
vn 0.2902 -0.9565 0.0286
vn 0.9527 0.2890 0.0938
vn 0.4709 -0.8810 0.0464
vn 0.8786 0.4696 0.0865
vn 0.6332 -0.7715 0.0624
vn 0.7708 0.6326 0.0759
vn 0.7708 -0.6326 0.0759
vn 0.6332 0.7715 0.0624
vn 0.8786 -0.4696 0.0865
vn 0.4709 0.8810 0.0464
vn 0.9527 -0.2890 0.0938
vn 0.2902 0.9565 0.0286
vn 0.9904 -0.0975 0.0975
vn 0.0980 -0.9951 0.0097
vn 0.0980 0.9951 0.0097
vn 0.6332 0.7715 -0.0624
vn 0.8786 -0.4696 -0.0865
vn 0.4709 0.8810 -0.0464
vn 0.9527 -0.2890 -0.0938
vn 0.2902 0.9565 -0.0286
vn 0.9904 -0.0975 -0.0976
vn 0.0980 -0.9951 -0.0097
vn 0.0980 0.9951 -0.0097
vn 0.9904 0.0975 -0.0976
vn 0.2902 -0.9565 -0.0286
vn 0.9527 0.2890 -0.0938
vn 0.4709 -0.8810 -0.0464
vn 0.8786 0.4696 -0.0865
vn 0.6332 -0.7715 -0.0624
vn 0.7708 0.6326 -0.0759
vn 0.7708 -0.6326 -0.0759
vn 0.2790 -0.9565 -0.0846
vn 0.9161 0.2890 -0.2779
vn 0.4528 -0.8810 -0.1374
vn 0.8448 0.4696 -0.2563
vn 0.6088 -0.7715 -0.1847
vn 0.7412 0.6326 -0.2248
vn 0.7412 -0.6326 -0.2248
vn 0.6088 0.7715 -0.1847
vn 0.8448 -0.4696 -0.2563
vn 0.4528 0.8810 -0.1374
vn 0.9161 -0.2890 -0.2779
vn 0.2790 0.9565 -0.0846
vn 0.9524 -0.0975 -0.2889
vn 0.0942 -0.9951 -0.0286
vn 0.0942 0.9951 -0.0286
vn 0.9524 0.0975 -0.2889
vn 0.7786 -0.4696 -0.4162
vn 0.4173 0.8810 -0.2231
vn 0.8443 -0.2890 -0.4513
vn 0.2571 0.9565 -0.1374
vn 0.8777 -0.0975 -0.4691
vn 0.0869 -0.9951 -0.0464
vn 0.0869 0.9951 -0.0464
vn 0.8777 0.0975 -0.4691
vn 0.2571 -0.9565 -0.1374
vn 0.8443 0.2890 -0.4513
vn 0.4173 -0.8810 -0.2230
vn 0.7786 0.4696 -0.4162
vn 0.5611 -0.7715 -0.2999
vn 0.6831 0.6326 -0.3651
vn 0.6831 -0.6326 -0.3651
vn 0.5611 0.7715 -0.2999
vn 0.7400 0.2890 -0.6073
vn 0.3658 -0.8810 -0.3002
vn 0.6825 0.4696 -0.5601
vn 0.4918 -0.7715 -0.4036
vn 0.5987 0.6326 -0.4913
vn 0.5987 -0.6326 -0.4913
vn 0.4918 0.7715 -0.4036
vn 0.6825 -0.4696 -0.5601
vn 0.3658 0.8810 -0.3002
vn 0.7400 -0.2890 -0.6073
vn 0.2254 0.9565 -0.1850
vn 0.7693 -0.0975 -0.6314
vn 0.0761 -0.9951 -0.0625
vn 0.0761 0.9951 -0.0625
vn 0.7693 0.0975 -0.6314
vn 0.2254 -0.9565 -0.1850
vn 0.3002 0.8810 -0.3658
vn 0.6073 -0.2890 -0.7400
vn 0.1850 0.9565 -0.2254
vn 0.6314 -0.0975 -0.7693
vn 0.0625 -0.9951 -0.0761
vn 0.0625 0.9951 -0.0761
vn 0.6314 0.0975 -0.7693
vn 0.1850 -0.9565 -0.2254
vn 0.6073 0.2890 -0.7400
vn 0.3002 -0.8810 -0.3658
vn 0.5601 0.4696 -0.6825
vn 0.4036 -0.7715 -0.4918
vn 0.4913 0.6326 -0.5987
vn 0.4913 -0.6326 -0.5987
vn 0.4036 0.7715 -0.4918
vn 0.5601 -0.4696 -0.6825
vn 0.4162 0.4696 -0.7786
vn 0.2999 -0.7715 -0.5611
vn 0.3651 0.6326 -0.6831
vn 0.3651 -0.6326 -0.6831
vn 0.2999 0.7715 -0.5611
vn 0.4162 -0.4696 -0.7786
vn 0.2231 0.8810 -0.4173
vn 0.4513 -0.2890 -0.8443
vn 0.1374 0.9565 -0.2571
vn 0.4691 -0.0975 -0.8777
vn 0.0464 -0.9951 -0.0869
vn 0.0464 0.9951 -0.0869
vn 0.4691 0.0975 -0.8777
vn 0.1374 -0.9565 -0.2571
vn 0.4513 0.2890 -0.8443
vn 0.2230 -0.8810 -0.4173
vn 0.0846 0.9565 -0.2790
vn 0.2889 -0.0975 -0.9524
vn 0.0286 -0.9951 -0.0942
vn 0.0286 0.9951 -0.0942
vn 0.2889 0.0975 -0.9524
vn 0.0846 -0.9565 -0.2790
vn 0.2779 0.2890 -0.9161
vn 0.1374 -0.8810 -0.4528
vn 0.2563 0.4696 -0.8448
vn 0.1847 -0.7715 -0.6088
vn 0.2248 0.6326 -0.7412
vn 0.2248 -0.6326 -0.7412
vn 0.1847 0.7715 -0.6088
vn 0.2563 -0.4696 -0.8448
vn 0.1374 0.8810 -0.4528
vn 0.2779 -0.2890 -0.9161
vn 0.0624 -0.7715 -0.6332
vn 0.0759 0.6326 -0.7708
vn 0.0759 -0.6326 -0.7708
vn 0.0624 0.7715 -0.6332
vn 0.0865 -0.4696 -0.8786
vn 0.0464 0.8810 -0.4709
vn 0.0938 -0.2890 -0.9527
vn 0.0286 0.9565 -0.2902
vn 0.0975 -0.0975 -0.9904
vn 0.0097 -0.9951 -0.0980
vn 0.0097 0.9951 -0.0980
vn 0.0976 0.0975 -0.9904
vn 0.0286 -0.9565 -0.2902
vn 0.0938 0.2890 -0.9527
vn 0.0464 -0.8810 -0.4709
vn 0.0865 0.4696 -0.8786
vn -0.0976 -0.0975 -0.9904
vn -0.0097 -0.9951 -0.0980
vn -0.0097 0.9951 -0.0980
vn -0.0976 0.0975 -0.9904
vn -0.0286 -0.9565 -0.2902
vn -0.0938 0.2890 -0.9527
vn -0.0464 -0.8810 -0.4709
vn -0.0865 0.4696 -0.8786
vn -0.0624 -0.7715 -0.6332
vn -0.0759 0.6326 -0.7708
vn -0.0759 -0.6326 -0.7708
vn -0.0624 0.7715 -0.6332
vn -0.0865 -0.4696 -0.8786
vn -0.0464 0.8810 -0.4709
vn -0.0938 -0.2890 -0.9527
vn -0.0286 0.9565 -0.2902
vn -0.2248 0.6326 -0.7412
vn -0.2248 -0.6326 -0.7412
vn -0.1847 0.7715 -0.6088
vn -0.2563 -0.4696 -0.8448
vn -0.1374 0.8810 -0.4528
vn -0.2779 -0.2890 -0.9161
vn -0.0846 0.9565 -0.2790
vn -0.2889 -0.0975 -0.9524
vn -0.0286 -0.9951 -0.0942
vn -0.0286 0.9951 -0.0942
vn -0.2889 0.0975 -0.9524
vn -0.0846 -0.9565 -0.2790
vn -0.2779 0.2890 -0.9161
vn -0.1374 -0.8810 -0.4528
vn -0.2563 0.4696 -0.8448
vn -0.1847 -0.7715 -0.6088
vn -0.0464 -0.9951 -0.0869
vn -0.0464 0.9951 -0.0869
vn -0.4691 0.0975 -0.8777
vn -0.1374 -0.9565 -0.2571
vn -0.4513 0.2890 -0.8443
vn -0.2230 -0.8810 -0.4173
vn -0.4162 0.4696 -0.7786
vn -0.2999 -0.7715 -0.5611
vn -0.3651 0.6326 -0.6831
vn -0.3651 -0.6326 -0.6831
vn -0.2999 0.7715 -0.5611
vn -0.4162 -0.4696 -0.7786
vn -0.2231 0.8810 -0.4173
vn -0.4513 -0.2890 -0.8443
vn -0.1374 0.9565 -0.2571
vn -0.4691 -0.0975 -0.8777
vn -0.4913 -0.6326 -0.5987
vn -0.4036 0.7715 -0.4918
vn -0.5601 -0.4696 -0.6825
vn -0.3002 0.8810 -0.3658
vn -0.6073 -0.2890 -0.7400
vn -0.1850 0.9565 -0.2254
vn -0.6314 -0.0975 -0.7693
vn -0.0625 -0.9951 -0.0761
vn -0.0625 0.9951 -0.0761
vn -0.6314 0.0975 -0.7693
vn -0.1850 -0.9565 -0.2254
vn -0.6073 0.2890 -0.7400
vn -0.3002 -0.8810 -0.3658
vn -0.5601 0.4696 -0.6825
vn -0.4036 -0.7715 -0.4918
vn -0.4913 0.6326 -0.5987
vn -0.7693 0.0975 -0.6314
vn -0.2254 -0.9565 -0.1850
vn -0.7400 0.2890 -0.6073
vn -0.3658 -0.8810 -0.3002
vn -0.6825 0.4696 -0.5601
vn -0.4918 -0.7715 -0.4036
vn -0.5987 0.6326 -0.4913
vn -0.5987 -0.6326 -0.4913
vn -0.4918 0.7715 -0.4036
vn -0.6825 -0.4696 -0.5601
vn -0.3658 0.8810 -0.3002
vn -0.7400 -0.2890 -0.6073
vn -0.2254 0.9565 -0.1850
vn -0.7693 -0.0975 -0.6314
vn -0.0761 -0.9951 -0.0625
vn -0.0761 0.9951 -0.0625
vn -0.5611 0.7715 -0.2999
vn -0.7786 -0.4696 -0.4162
vn -0.4173 0.8810 -0.2231
vn -0.8443 -0.2890 -0.4513
vn -0.2571 0.9565 -0.1374
vn -0.8777 -0.0975 -0.4691
vn -0.0869 -0.9951 -0.0464
vn -0.0869 0.9951 -0.0464
vn -0.8777 0.0975 -0.4691
vn -0.2571 -0.9565 -0.1374
vn -0.8443 0.2890 -0.4513
vn -0.4173 -0.8810 -0.2231
vn -0.7786 0.4696 -0.4162
vn -0.5611 -0.7715 -0.2999
vn -0.6831 0.6326 -0.3651
vn -0.6831 -0.6326 -0.3651
vn -0.9161 0.2890 -0.2779
vn -0.4528 -0.8810 -0.1374
vn -0.8448 0.4696 -0.2563
vn -0.6088 -0.7715 -0.1847
vn -0.7412 0.6326 -0.2248
vn -0.7412 -0.6326 -0.2248
vn -0.6088 0.7715 -0.1847
vn -0.8448 -0.4696 -0.2563
vn -0.4528 0.8810 -0.1374
vn -0.9161 -0.2890 -0.2779
vn -0.2790 0.9565 -0.0846
vn -0.9524 -0.0975 -0.2889
vn -0.0942 -0.9951 -0.0286
vn -0.0942 0.9951 -0.0286
vn -0.9524 0.0975 -0.2889
vn -0.2790 -0.9565 -0.0846
vn -0.4709 0.8810 -0.0464
vn -0.9527 -0.2890 -0.0938
vn -0.2902 0.9565 -0.0286
vn -0.9904 -0.0975 -0.0975
vn -0.0980 -0.9951 -0.0097
vn -0.0980 0.9951 -0.0097
vn -0.9904 0.0975 -0.0976
vn -0.2902 -0.9565 -0.0286
vn -0.9527 0.2890 -0.0938
vn -0.4709 -0.8810 -0.0464
vn -0.8786 0.4696 -0.0865
vn -0.6332 -0.7715 -0.0624
vn -0.7708 0.6326 -0.0759
vn -0.7708 -0.6326 -0.0759
vn -0.6332 0.7715 -0.0624
vn -0.8786 -0.4696 -0.0865
vn -0.4709 -0.8810 0.0464
vn -0.8786 0.4696 0.0865
vn -0.6332 -0.7715 0.0624
vn -0.7708 0.6326 0.0759
vn -0.7708 -0.6326 0.0759
vn -0.6332 0.7715 0.0624
vn -0.8786 -0.4696 0.0865
vn -0.4709 0.8810 0.0464
vn -0.9527 -0.2890 0.0938
vn -0.2902 0.9565 0.0286
vn -0.9904 -0.0975 0.0976
vn -0.0980 -0.9951 0.0097
vn -0.0980 0.9951 0.0097
vn -0.9904 0.0975 0.0976
vn -0.2902 -0.9565 0.0286
vn -0.9527 0.2890 0.0938
vn -0.9161 -0.2890 0.2779
vn -0.2790 0.9565 0.0846
vn -0.9524 -0.0975 0.2889
vn -0.0942 -0.9951 0.0286
vn -0.0942 0.9951 0.0286
vn -0.9524 0.0975 0.2889
vn -0.2790 -0.9565 0.0846
vn -0.9161 0.2890 0.2779
vn -0.4528 -0.8810 0.1374
vn -0.8448 0.4696 0.2563
vn -0.6088 -0.7715 0.1847
vn -0.7412 0.6326 0.2248
vn -0.7412 -0.6326 0.2248
vn -0.6088 0.7715 0.1847
vn -0.8448 -0.4696 0.2563
vn -0.4528 0.8810 0.1374
vn -0.7786 0.4696 0.4162
vn -0.5611 -0.7715 0.2999
vn -0.6831 0.6326 0.3651
vn -0.6831 -0.6326 0.3651
vn -0.5611 0.7715 0.2999
vn -0.7786 -0.4696 0.4162
vn -0.4173 0.8810 0.2230
vn -0.8443 -0.2890 0.4513
vn -0.2571 0.9565 0.1374
vn -0.8777 -0.0975 0.4691
vn -0.0869 -0.9951 0.0464
vn -0.0869 0.9951 0.0464
vn -0.8777 0.0975 0.4691
vn -0.2571 -0.9565 0.1374
vn -0.8443 0.2890 0.4513
vn -0.4173 -0.8810 0.2231
vn -0.2254 0.9565 0.1850
vn -0.7693 -0.0975 0.6314
vn -0.0761 -0.9951 0.0625
vn -0.0761 0.9951 0.0625
vn -0.7693 0.0975 0.6314
vn -0.2254 -0.9565 0.1850
vn -0.7400 0.2890 0.6073
vn -0.3658 -0.8810 0.3002
vn -0.6825 0.4696 0.5601
vn -0.4918 -0.7715 0.4036
vn -0.5987 0.6326 0.4913
vn -0.5987 -0.6326 0.4913
vn -0.4918 0.7715 0.4036
vn -0.6825 -0.4696 0.5601
vn -0.3658 0.8810 0.3002
vn -0.7400 -0.2890 0.6073
vn -0.4036 -0.7715 0.4918
vn -0.4913 0.6326 0.5987
vn -0.4913 -0.6326 0.5987
vn -0.4036 0.7715 0.4918
vn -0.5601 -0.4696 0.6825
vn -0.3002 0.8810 0.3658
vn -0.6073 -0.2890 0.7400
vn -0.1850 0.9566 0.2254
vn -0.6314 -0.0975 0.7693
vn -0.0625 -0.9951 0.0761
vn -0.0625 0.9951 0.0761
vn -0.6314 0.0975 0.7693
vn -0.1850 -0.9565 0.2254
vn -0.6073 0.2890 0.7400
vn -0.3002 -0.8810 0.3658
vn -0.5601 0.4696 0.6825
vn -0.4691 -0.0975 0.8777
vn -0.0464 -0.9951 0.0869
vn -0.0464 0.9951 0.0869
vn -0.4691 0.0975 0.8777
vn -0.1374 -0.9565 0.2571
vn -0.4513 0.2890 0.8443
vn -0.2230 -0.8810 0.4173
vn -0.4162 0.4696 0.7786
vn -0.2999 -0.7715 0.5611
vn -0.3651 0.6326 0.6831
vn -0.3651 -0.6326 0.6831
vn -0.2999 0.7715 0.5611
vn -0.4162 -0.4696 0.7786
vn -0.2230 0.8810 0.4173
vn -0.4513 -0.2890 0.8443
vn -0.1374 0.9565 0.2571
vn -0.2248 0.6326 0.7412
vn -0.2248 -0.6326 0.7412
vn -0.1847 0.7715 0.6088
vn -0.2563 -0.4696 0.8448
vn -0.1374 0.8810 0.4528
vn -0.2779 -0.2890 0.9161
vn -0.0846 0.9565 0.2790
vn -0.2889 -0.0975 0.9524
vn -0.0286 -0.9951 0.0942
vn -0.0286 0.9951 0.0942
vn -0.2889 0.0975 0.9524
vn -0.0846 -0.9565 0.2790
vn -0.2779 0.2890 0.9161
vn -0.1374 -0.8810 0.4528
vn -0.2563 0.4696 0.8448
vn -0.1847 -0.7715 0.6088
vn -0.0097 0.9951 0.0980
vn -0.0975 0.0975 0.9904
vn -0.0286 -0.9565 0.2902
vn -0.0938 0.2890 0.9527
vn -0.0464 -0.8810 0.4709
vn -0.0865 0.4696 0.8786
vn -0.0624 -0.7715 0.6332
vn -0.0759 0.6326 0.7708
vn -0.0759 -0.6326 0.7708
vn -0.0624 0.7715 0.6332
vn -0.0865 -0.4696 0.8786
vn -0.0464 0.8810 0.4709
vn -0.0938 -0.2890 0.9527
vn -0.0286 0.9565 0.2902
vn -0.0975 -0.0975 0.9904
vn -0.0097 -0.9951 0.0980
vn 0.2230 0.8810 0.4173
vn 0.8777 0.0975 0.4691
vn 0.8777 -0.0976 0.4691
vn 0.4173 0.8810 -0.2230
vn 0.1850 -0.9566 -0.2254
vn 0.2230 0.8810 -0.4173
vn 0.0976 -0.0975 -0.9904
vn 0.0975 0.0975 -0.9904
vn -0.0975 0.0975 -0.9904
vn -0.2231 -0.8810 -0.4173
vn -0.4173 0.8810 -0.2230
vn -0.4173 -0.8810 -0.2230
vn -0.9904 -0.0975 -0.0976
vn -0.9904 0.0975 -0.0975
vn -0.4173 0.8810 0.2231
vn -0.4173 -0.8810 0.2230
vn -0.1850 0.9565 0.2254
vn -0.2231 -0.8810 0.4173
vn -0.0976 -0.0975 0.9904
vt 0.750000 0.937500
vt 0.734375 1.000000
vt 0.718750 0.937500
vt 0.734375 0.000000
vt 0.750000 0.062500
vt 0.718750 0.062500
vt 0.750000 0.500000
vt 0.718750 0.437500
vt 0.750000 0.437500
vt 0.718750 0.875000
vt 0.750000 0.875000
vt 0.718750 0.375000
vt 0.750000 0.375000
vt 0.718750 0.812500
vt 0.750000 0.812500
vt 0.718750 0.312500
vt 0.750000 0.312500
vt 0.718750 0.750000
vt 0.750000 0.750000
vt 0.718750 0.250000
vt 0.750000 0.250000
vt 0.718750 0.687500
vt 0.750000 0.687500
vt 0.750000 0.187500
vt 0.718750 0.187500
vt 0.718750 0.625000
vt 0.750000 0.625000
vt 0.718750 0.125000
vt 0.750000 0.125000
vt 0.750000 0.562500
vt 0.718750 0.562500
vt 0.718750 0.500000
vt 0.687500 0.562500
vt 0.687500 0.125000
vt 0.687500 0.062500
vt 0.687500 0.500000
vt 0.703125 1.000000
vt 0.687500 0.937500
vt 0.703125 0.000000
vt 0.687500 0.437500
vt 0.687500 0.875000
vt 0.687500 0.375000
vt 0.687500 0.812500
vt 0.687500 0.312500
vt 0.687500 0.750000
vt 0.687500 0.250000
vt 0.687500 0.687500
vt 0.687500 0.187500
vt 0.687500 0.625000
vt 0.656250 0.375000
vt 0.656250 0.312500
vt 0.656250 0.750000
vt 0.656250 0.250000
vt 0.656250 0.687500
vt 0.656250 0.187500
vt 0.656250 0.625000
vt 0.656250 0.125000
vt 0.656250 0.562500
vt 0.656250 0.062500
vt 0.656250 0.500000
vt 0.671875 1.000000
vt 0.656250 0.937500
vt 0.671875 0.000000
vt 0.656250 0.437500
vt 0.656250 0.875000
vt 0.656250 0.812500
vt 0.625000 0.062500
vt 0.625000 0.562500
vt 0.625000 0.500000
vt 0.640625 1.000000
vt 0.625000 0.937500
vt 0.640625 0.000000
vt 0.625000 0.437500
vt 0.625000 0.875000
vt 0.625000 0.375000
vt 0.625000 0.812500
vt 0.625000 0.312500
vt 0.625000 0.750000
vt 0.625000 0.250000
vt 0.625000 0.687500
vt 0.625000 0.187500
vt 0.625000 0.625000
vt 0.625000 0.125000
vt 0.593750 0.250000
vt 0.593750 0.687500
vt 0.593750 0.187500
vt 0.593750 0.625000
vt 0.593750 0.125000
vt 0.593750 0.562500
vt 0.593750 0.062500
vt 0.593750 0.500000
vt 0.609375 1.000000
vt 0.593750 0.937500
vt 0.609375 0.000000
vt 0.593750 0.437500
vt 0.593750 0.875000
vt 0.593750 0.375000
vt 0.593750 0.812500
vt 0.593750 0.312500
vt 0.593750 0.750000
vt 0.578125 1.000000
vt 0.562500 0.937500
vt 0.578125 0.000000
vt 0.562500 0.062500
vt 0.562500 0.437500
vt 0.562500 0.875000
vt 0.562500 0.375000
vt 0.562500 0.812500
vt 0.562500 0.312500
vt 0.562500 0.750000
vt 0.562500 0.250000
vt 0.562500 0.687500
vt 0.562500 0.187500
vt 0.562500 0.625000
vt 0.562500 0.125000
vt 0.562500 0.562500
vt 0.562500 0.500000
vt 0.531250 0.750000
vt 0.531250 0.687500
vt 0.531250 0.250000
vt 0.531250 0.187500
vt 0.531250 0.625000
vt 0.531250 0.125000
vt 0.531250 0.562500
vt 0.531250 0.062500
vt 0.531250 0.500000
vt 0.546875 1.000000
vt 0.531250 0.937500
vt 0.546875 0.000000
vt 0.531250 0.437500
vt 0.531250 0.875000
vt 0.531250 0.375000
vt 0.531250 0.812500
vt 0.531250 0.312500
vt 0.500000 0.437500
vt 0.500000 0.937500
vt 0.500000 0.875000
vt 0.500000 0.375000
vt 0.500000 0.812500
vt 0.500000 0.312500
vt 0.500000 0.750000
vt 0.500000 0.250000
vt 0.500000 0.687500
vt 0.500000 0.187500
vt 0.500000 0.625000
vt 0.500000 0.125000
vt 0.500000 0.562500
vt 0.500000 0.062500
vt 0.500000 0.500000
vt 0.515625 1.000000
vt 0.515625 0.000000
vt 0.468750 0.250000
vt 0.468750 0.187500
vt 0.468750 0.625000
vt 0.468750 0.125000
vt 0.468750 0.562500
vt 0.468750 0.062500
vt 0.468750 0.500000
vt 0.484375 1.000000
vt 0.468750 0.937500
vt 0.484375 0.000000
vt 0.468750 0.437500
vt 0.468750 0.875000
vt 0.468750 0.375000
vt 0.468750 0.812500
vt 0.468750 0.312500
vt 0.468750 0.750000
vt 0.468750 0.687500
vt 0.437500 0.875000
vt 0.437500 0.437500
vt 0.437500 0.375000
vt 0.437500 0.812500
vt 0.437500 0.312500
vt 0.437500 0.750000
vt 0.437500 0.250000
vt 0.437500 0.687500
vt 0.437500 0.187500
vt 0.437500 0.625000
vt 0.437500 0.125000
vt 0.437500 0.562500
vt 0.437500 0.062500
vt 0.437500 0.500000
vt 0.453125 1.000000
vt 0.437500 0.937500
vt 0.453125 0.000000
vt 0.406250 0.625000
vt 0.406250 0.125000
vt 0.406250 0.562500
vt 0.406250 0.062500
vt 0.406250 0.500000
vt 0.421875 1.000000
vt 0.406250 0.937500
vt 0.421875 0.000000
vt 0.406250 0.437500
vt 0.406250 0.875000
vt 0.406250 0.375000
vt 0.406250 0.812500
vt 0.406250 0.312500
vt 0.406250 0.750000
vt 0.406250 0.250000
vt 0.406250 0.687500
vt 0.406250 0.187500
vt 0.375000 0.437500
vt 0.375000 0.375000
vt 0.375000 0.812500
vt 0.375000 0.312500
vt 0.375000 0.750000
vt 0.375000 0.250000
vt 0.375000 0.687500
vt 0.375000 0.187500
vt 0.375000 0.625000
vt 0.375000 0.125000
vt 0.375000 0.562500
vt 0.375000 0.062500
vt 0.375000 0.500000
vt 0.390625 1.000000
vt 0.375000 0.937500
vt 0.390625 0.000000
vt 0.375000 0.875000
vt 0.343750 0.187500
vt 0.343750 0.125000
vt 0.343750 0.562500
vt 0.343750 0.062500
vt 0.343750 0.500000
vt 0.359375 1.000000
vt 0.343750 0.937500
vt 0.359375 0.000000
vt 0.343750 0.437500
vt 0.343750 0.875000
vt 0.343750 0.375000
vt 0.343750 0.812500
vt 0.343750 0.312500
vt 0.343750 0.750000
vt 0.343750 0.250000
vt 0.343750 0.687500
vt 0.343750 0.625000
vt 0.312500 0.312500
vt 0.312500 0.750000
vt 0.312500 0.250000
vt 0.312500 0.687500
vt 0.312500 0.187500
vt 0.312500 0.625000
vt 0.312500 0.125000
vt 0.312500 0.562500
vt 0.312500 0.062500
vt 0.312500 0.500000
vt 0.328125 1.000000
vt 0.312500 0.937500
vt 0.328125 0.000000
vt 0.312500 0.437500
vt 0.312500 0.875000
vt 0.312500 0.375000
vt 0.312500 0.812500
vt 0.281250 0.062500
vt 0.281250 0.562500
vt 0.281250 0.500000
vt 0.296875 1.000000
vt 0.281250 0.937500
vt 0.296875 0.000000
vt 0.281250 0.437500
vt 0.281250 0.875000
vt 0.281250 0.375000
vt 0.281250 0.812500
vt 0.281250 0.312500
vt 0.281250 0.750000
vt 0.281250 0.250000
vt 0.281250 0.687500
vt 0.281250 0.187500
vt 0.281250 0.625000
vt 0.281250 0.125000
vt 0.250000 0.750000
vt 0.250000 0.250000
vt 0.250000 0.687500
vt 0.250000 0.187500
vt 0.250000 0.625000
vt 0.250000 0.125000
vt 0.250000 0.562500
vt 0.250000 0.062500
vt 0.250000 0.500000
vt 0.265625 1.000000
vt 0.250000 0.937500
vt 0.265625 0.000000
vt 0.250000 0.437500
vt 0.250000 0.875000
vt 0.250000 0.375000
vt 0.250000 0.812500
vt 0.250000 0.312500
vt 0.218750 0.562500
vt 0.218750 0.500000
vt 0.234375 1.000000
vt 0.218750 0.937500
vt 0.234375 0.000000
vt 0.218750 0.062500
vt 0.218750 0.437500
vt 0.218750 0.875000
vt 0.218750 0.375000
vt 0.218750 0.812500
vt 0.218750 0.312500
vt 0.218750 0.750000
vt 0.218750 0.250000
vt 0.218750 0.687500
vt 0.218750 0.187500
vt 0.218750 0.625000
vt 0.218750 0.125000
vt 0.187500 0.250000
vt 0.187500 0.750000
vt 0.187500 0.687500
vt 0.187500 0.187500
vt 0.187500 0.625000
vt 0.187500 0.125000
vt 0.187500 0.562500
vt 0.187500 0.062500
vt 0.187500 0.500000
vt 0.203125 1.000000
vt 0.187500 0.937500
vt 0.203125 0.000000
vt 0.187500 0.437500
vt 0.187500 0.875000
vt 0.187500 0.375000
vt 0.187500 0.812500
vt 0.187500 0.312500
vt 0.171875 1.000000
vt 0.156250 0.937500
vt 0.171875 0.000000
vt 0.156250 0.062500
vt 0.156250 0.437500
vt 0.156250 0.875000
vt 0.156250 0.375000
vt 0.156250 0.812500
vt 0.156250 0.312500
vt 0.156250 0.750000
vt 0.156250 0.250000
vt 0.156250 0.687500
vt 0.156250 0.187500
vt 0.156250 0.625000
vt 0.156250 0.125000
vt 0.156250 0.562500
vt 0.156250 0.500000
vt 0.125000 0.687500
vt 0.125000 0.250000
vt 0.125000 0.187500
vt 0.125000 0.625000
vt 0.125000 0.125000
vt 0.125000 0.562500
vt 0.125000 0.062500
vt 0.125000 0.500000
vt 0.140625 1.000000
vt 0.125000 0.937500
vt 0.140625 0.000000
vt 0.125000 0.437500
vt 0.125000 0.875000
vt 0.125000 0.375000
vt 0.125000 0.812500
vt 0.125000 0.312500
vt 0.125000 0.750000
vt 0.093750 0.437500
vt 0.093750 0.937500
vt 0.093750 0.875000
vt 0.093750 0.375000
vt 0.093750 0.812500
vt 0.093750 0.312500
vt 0.093750 0.750000
vt 0.093750 0.250000
vt 0.093750 0.687500
vt 0.093750 0.187500
vt 0.093750 0.625000
vt 0.093750 0.125000
vt 0.093750 0.562500
vt 0.093750 0.062500
vt 0.093750 0.500000
vt 0.109375 1.000000
vt 0.109375 0.000000
vt 0.062500 0.250000
vt 0.062500 0.187500
vt 0.062500 0.687500
vt 0.062500 0.625000
vt 0.062500 0.125000
vt 0.062500 0.562500
vt 0.062500 0.062500
vt 0.062500 0.500000
vt 0.078125 1.000000
vt 0.062500 0.937500
vt 0.078125 0.000000
vt 0.062500 0.437500
vt 0.062500 0.875000
vt 0.062500 0.375000
vt 0.062500 0.812500
vt 0.062500 0.312500
vt 0.062500 0.750000
vt 0.031250 0.437500
vt 0.031250 0.375000
vt 0.031250 0.875000
vt 0.031250 0.812500
vt 0.031250 0.312500
vt 0.031250 0.750000
vt 0.031250 0.250000
vt 0.031250 0.687500
vt 0.031250 0.187500
vt 0.031250 0.625000
vt 0.031250 0.125000
vt 0.031250 0.562500
vt 0.031250 0.062500
vt 0.031250 0.500000
vt 0.046875 1.000000
vt 0.031250 0.937500
vt 0.046875 0.000000
vt 0.000000 0.125000
vt 0.000000 0.625000
vt 0.000000 0.562500
vt 0.000000 0.062500
vt 0.000000 0.500000
vt 0.015625 1.000000
vt 0.000000 0.937500
vt 0.015625 0.000000
vt 0.000000 0.437500
vt 0.000000 0.875000
vt 0.000000 0.375000
vt 0.000000 0.812500
vt 0.000000 0.312500
vt 0.000000 0.750000
vt 0.000000 0.250000
vt 0.000000 0.687500
vt 0.000000 0.187500
vt 1.000000 0.875000
vt 0.968750 0.812500
vt 1.000000 0.812500
vt 1.000000 0.375000
vt 0.968750 0.312500
vt 1.000000 0.312500
vt 0.968750 0.750000
vt 1.000000 0.750000
vt 0.968750 0.250000
vt 1.000000 0.250000
vt 0.968750 0.687500
vt 1.000000 0.687500
vt 1.000000 0.187500
vt 0.968750 0.187500
vt 0.968750 0.625000
vt 1.000000 0.625000
vt 0.968750 0.125000
vt 1.000000 0.125000
vt 0.968750 0.562500
vt 1.000000 0.562500
vt 0.968750 0.062500
vt 1.000000 0.062500
vt 1.000000 0.500000
vt 0.968750 0.500000
vt 1.000000 0.937500
vt 0.984375 1.000000
vt 0.968750 0.937500
vt 0.984375 0.000000
vt 0.968750 0.437500
vt 1.000000 0.437500
vt 0.968750 0.875000
vt 0.968750 0.375000
vt 0.937500 0.625000
vt 0.937500 0.562500
vt 0.937500 0.062500
vt 0.937500 0.500000
vt 0.953125 1.000000
vt 0.937500 0.937500
vt 0.953125 0.000000
vt 0.937500 0.437500
vt 0.937500 0.875000
vt 0.937500 0.375000
vt 0.937500 0.812500
vt 0.937500 0.312500
vt 0.937500 0.750000
vt 0.937500 0.250000
vt 0.937500 0.687500
vt 0.937500 0.187500
vt 0.937500 0.125000
vt 0.906250 0.312500
vt 0.906250 0.750000
vt 0.906250 0.250000
vt 0.906250 0.687500
vt 0.906250 0.187500
vt 0.906250 0.625000
vt 0.906250 0.125000
vt 0.906250 0.562500
vt 0.906250 0.062500
vt 0.906250 0.500000
vt 0.921875 1.000000
vt 0.906250 0.937500
vt 0.921875 0.000000
vt 0.906250 0.437500
vt 0.906250 0.875000
vt 0.906250 0.375000
vt 0.906250 0.812500
vt 0.875000 0.062500
vt 0.875000 0.562500
vt 0.875000 0.500000
vt 0.890625 1.000000
vt 0.875000 0.937500
vt 0.890625 0.000000
vt 0.875000 0.437500
vt 0.875000 0.875000
vt 0.875000 0.375000
vt 0.875000 0.812500
vt 0.875000 0.312500
vt 0.875000 0.750000
vt 0.875000 0.250000
vt 0.875000 0.687500
vt 0.875000 0.187500
vt 0.875000 0.625000
vt 0.875000 0.125000
vt 0.843750 0.750000
vt 0.843750 0.312500
vt 0.843750 0.250000
vt 0.843750 0.687500
vt 0.843750 0.187500
vt 0.843750 0.625000
vt 0.843750 0.125000
vt 0.843750 0.562500
vt 0.843750 0.062500
vt 0.843750 0.500000
vt 0.859375 1.000000
vt 0.843750 0.937500
vt 0.859375 0.000000
vt 0.843750 0.437500
vt 0.843750 0.875000
vt 0.843750 0.375000
vt 0.843750 0.812500
vt 0.812500 0.562500
vt 0.812500 0.500000
vt 0.828125 1.000000
vt 0.812500 0.937500
vt 0.828125 0.000000
vt 0.812500 0.062500
vt 0.812500 0.437500
vt 0.812500 0.875000
vt 0.812500 0.375000
vt 0.812500 0.812500
vt 0.812500 0.312500
vt 0.812500 0.750000
vt 0.812500 0.250000
vt 0.812500 0.687500
vt 0.812500 0.187500
vt 0.812500 0.625000
vt 0.812500 0.125000
vt 0.781250 0.250000
vt 0.781250 0.687500
vt 0.781250 0.187500
vt 0.781250 0.625000
vt 0.781250 0.125000
vt 0.781250 0.562500
vt 0.781250 0.062500
vt 0.781250 0.500000
vt 0.796875 1.000000
vt 0.781250 0.937500
vt 0.796875 0.000000
vt 0.781250 0.437500
vt 0.781250 0.875000
vt 0.781250 0.375000
vt 0.781250 0.812500
vt 0.781250 0.312500
vt 0.781250 0.750000
vt 0.765625 0.000000
vt 0.765625 1.000000
s 0
usemtl Material.001
f 1/1/1 326/2/1 11/3/1
f 482/4/2 481/5/2 25/6/2
f 477/7/3 19/8/3 478/9/3
f 1/1/4 12/10/4 2/11/4
f 478/9/5 20/12/5 479/13/5
f 2/11/6 13/14/6 3/15/6
f 479/13/7 21/16/7 8/17/7
f 3/15/8 14/18/8 4/19/8
f 8/17/9 22/20/9 9/21/9
f 4/19/10 15/22/10 5/23/10
f 10/24/11 22/20/11 23/25/11
f 5/23/12 16/26/12 6/27/12
f 10/24/13 24/28/13 480/29/13
f 7/30/14 16/26/14 17/31/14
f 480/29/15 25/6/15 481/5/15
f 477/7/16 17/31/16 18/32/16
f 16/26/17 32/33/17 17/31/17
f 25/6/18 39/34/18 40/35/18
f 18/32/19 32/33/19 33/36/19
f 11/3/20 326/37/20 26/38/20
f 482/39/21 25/6/21 40/35/21
f 18/32/22 34/40/22 19/8/22
f 11/3/23 27/41/23 12/10/23
f 19/8/24 35/42/24 20/12/24
f 13/14/25 27/41/25 28/43/25
f 20/12/26 36/44/26 21/16/26
f 14/18/27 28/43/27 29/45/27
f 21/16/28 37/46/28 22/20/28
f 14/18/29 30/47/29 15/22/29
f 23/25/30 37/46/30 38/48/30
f 15/22/31 31/49/31 16/26/31
f 24/28/32 38/48/32 39/34/32
f 36/44/33 50/50/33 51/51/33
f 28/43/34 44/52/34 29/45/34
f 36/44/35 52/53/35 37/46/35
f 29/45/36 45/54/36 30/47/36
f 37/46/37 53/55/37 38/48/37
f 30/47/38 46/56/38 31/49/38
f 39/34/39 53/55/39 54/57/39
f 32/33/40 46/56/40 47/58/40
f 40/35/41 54/57/41 55/59/41
f 33/36/42 47/58/42 48/60/42
f 26/38/43 326/61/43 41/62/43
f 482/63/44 40/35/44 55/59/44
f 33/36/45 49/64/45 34/40/45
f 26/38/46 42/65/46 27/41/46
f 35/42/47 49/64/47 50/50/47
f 27/41/48 43/66/48 28/43/48
f 54/57/49 70/67/49 55/59/49
f 48/60/50 62/68/50 63/69/50
f 41/62/51 326/70/51 56/71/51
f 482/72/52 55/59/52 70/67/52
f 48/60/53 64/73/53 49/64/53
f 41/62/54 57/74/54 42/65/54
f 50/50/55 64/73/55 65/75/55
f 42/65/56 58/76/56 43/66/56
f 51/51/57 65/75/57 66/77/57
f 43/66/58 59/78/58 44/52/58
f 51/51/59 67/79/59 52/53/59
f 44/52/60 60/80/60 45/54/60
f 52/53/61 68/81/61 53/55/61
f 46/56/62 60/80/62 61/82/62
f 53/55/63 69/83/63 54/57/63
f 46/56/64 62/68/64 47/58/64
f 66/77/65 82/84/65 67/79/65
f 59/78/66 75/85/66 60/80/66
f 68/81/67 82/84/67 83/86/67
f 61/82/68 75/85/68 76/87/68
f 69/83/69 83/86/69 84/88/69
f 62/68/70 76/87/70 77/89/70
f 69/83/71 85/90/71 70/67/71
f 63/69/72 77/89/72 78/91/72
f 56/71/73 326/92/73 71/93/73
f 482/94/74 70/67/74 85/90/74
f 63/69/75 79/95/75 64/73/75
f 56/71/76 72/96/76 57/74/76
f 64/73/77 80/97/77 65/75/77
f 57/74/78 73/98/78 58/76/78
f 65/75/79 81/99/79 66/77/79
f 58/76/80 74/100/80 59/78/80
f 71/93/81 326/101/81 86/102/81
f 482/103/82 85/90/82 100/104/82
f 78/91/83 94/105/83 79/95/83
f 71/93/84 87/106/84 72/96/84
f 80/97/85 94/105/85 95/107/85
f 72/96/86 88/108/86 73/98/86
f 80/97/87 96/109/87 81/99/87
f 73/98/88 89/110/88 74/100/88
f 81/99/89 97/111/89 82/84/89
f 75/85/90 89/110/90 90/112/90
f 82/84/91 98/113/91 83/86/91
f 75/85/92 91/114/92 76/87/92
f 83/86/93 99/115/93 84/88/93
f 77/89/94 91/114/94 92/116/94
f 84/88/95 100/104/95 85/90/95
f 78/91/96 92/116/96 93/117/96
f 90/112/97 104/118/97 105/119/97
f 98/113/98 112/120/98 113/121/98
f 90/112/99 106/122/99 91/114/99
f 98/113/100 114/123/100 99/115/100
f 92/116/101 106/122/101 107/124/101
f 99/115/102 115/125/102 100/104/102
f 93/117/103 107/124/103 108/126/103
f 86/102/104 326/127/104 101/128/104
f 482/129/105 100/104/105 115/125/105
f 93/117/106 109/130/106 94/105/106
f 86/102/107 102/131/107 87/106/107
f 95/107/108 109/130/108 110/132/108
f 87/106/109 103/133/109 88/108/109
f 95/107/110 111/134/110 96/109/110
f 88/108/111 104/118/111 89/110/111
f 96/109/112 112/120/112 97/111/112
f 108/126/113 124/135/113 109/130/113
f 102/131/114 116/136/114 117/137/114
f 110/132/115 124/135/115 125/138/115
f 102/131/116 118/139/116 103/133/116
f 110/132/117 126/140/117 111/134/117
f 103/133/118 119/141/118 104/118/118
f 112/120/119 126/140/119 127/142/119
f 104/118/120 120/143/120 105/119/120
f 113/121/121 127/142/121 128/144/121
f 105/119/122 121/145/122 106/122/122
f 114/123/123 128/144/123 129/146/123
f 106/122/124 122/147/124 107/124/124
f 114/123/125 130/148/125 115/125/125
f 108/126/126 122/147/126 123/149/126
f 101/128/127 326/150/127 116/136/127
f 482/151/128 115/125/128 130/148/128
f 128/144/129 142/152/129 143/153/129
f 120/143/130 136/154/130 121/145/130
f 128/144/131 144/155/131 129/146/131
f 121/145/132 137/156/132 122/147/132
f 129/146/133 145/157/133 130/148/133
f 123/149/134 137/156/134 138/158/134
f 116/136/135 326/159/135 131/160/135
f 482/161/136 130/148/136 145/157/136
f 123/149/137 139/162/137 124/135/137
f 117/137/138 131/160/138 132/163/138
f 124/135/139 140/164/139 125/138/139
f 118/139/140 132/163/140 133/165/140
f 125/138/141 141/166/141 126/140/141
f 118/139/142 134/167/142 119/141/142
f 126/140/143 142/152/143 127/142/143
f 120/143/144 134/167/144 135/168/144
f 131/160/145 147/169/145 132/163/145
f 140/164/146 154/170/146 155/171/146
f 132/163/147 148/172/147 133/165/147
f 140/164/148 156/173/148 141/166/148
f 133/165/149 149/174/149 134/167/149
f 141/166/150 157/175/150 142/152/150
f 135/168/151 149/174/151 150/176/151
f 143/153/152 157/175/152 158/177/152
f 135/168/153 151/178/153 136/154/153
f 143/153/154 159/179/154 144/155/154
f 137/156/155 151/178/155 152/180/155
f 145/157/156 159/179/156 160/181/156
f 138/158/157 152/180/157 153/182/157
f 131/160/158 326/183/158 146/184/158
f 482/185/159 145/157/159 160/181/159
f 138/158/160 154/170/160 139/162/160
f 150/176/161 166/186/161 151/178/161
f 158/177/162 174/187/162 159/179/162
f 152/180/163 166/186/163 167/188/163
f 160/181/164 174/187/164 175/189/164
f 153/182/165 167/188/165 168/190/165
f 146/184/166 326/191/166 161/192/166
f 482/193/167 160/181/167 175/189/167
f 153/182/168 169/194/168 154/170/168
f 146/184/169 162/195/169 147/169/169
f 155/171/170 169/194/170 170/196/170
f 147/169/171 163/197/171 148/172/171
f 155/171/172 171/198/172 156/173/172
f 148/172/173 164/199/173 149/174/173
f 157/175/174 171/198/174 172/200/174
f 149/174/175 165/201/175 150/176/175
f 158/177/176 172/200/176 173/202/176
f 170/196/177 184/203/177 185/204/177
f 162/195/178 178/205/178 163/197/178
f 170/196/179 186/206/179 171/198/179
f 163/197/180 179/207/180 164/199/180
f 172/200/181 186/206/181 187/208/181
f 164/199/182 180/209/182 165/201/182
f 172/200/183 188/210/183 173/202/183
f 165/201/184 181/211/184 166/186/184
f 173/202/185 189/212/185 174/187/185
f 167/188/186 181/211/186 182/213/186
f 174/187/187 190/214/187 175/189/187
f 168/190/188 182/213/188 183/215/188
f 161/192/189 326/216/189 176/217/189
f 482/218/190 175/189/190 190/214/190
f 168/190/191 184/203/191 169/194/191
f 161/192/192 177/219/192 162/195/192
f 189/212/193 203/220/193 204/221/193
f 181/211/194 197/222/194 182/213/194
f 189/212/195 205/223/195 190/214/195
f 183/215/196 197/222/196 198/224/196
f 176/217/197 326/225/197 191/226/197
f 482/227/198 190/214/198 205/223/198
f 183/215/199 199/228/199 184/203/199
f 177/219/200 191/226/200 192/229/200
f 185/204/201 199/228/201 200/230/201
f 177/219/202 193/231/202 178/205/202
f 185/204/203 201/232/203 186/206/203
f 178/205/204 194/233/204 179/207/204
f 186/206/205 202/234/205 187/208/205
f 180/209/206 194/233/206 195/235/206
f 187/208/207 203/220/207 188/210/207
f 180/209/208 196/236/208 181/211/208
f 200/230/209 216/237/209 201/232/209
f 193/231/210 209/238/210 194/233/210
f 201/232/211 217/239/211 202/234/211
f 195/235/212 209/238/212 210/240/212
f 203/220/213 217/239/213 218/241/213
f 195/235/214 211/242/214 196/236/214
f 203/220/215 219/243/215 204/221/215
f 197/222/216 211/242/216 212/244/216
f 204/221/217 220/245/217 205/223/217
f 198/224/218 212/244/218 213/246/218
f 191/226/219 326/247/219 206/248/219
f 482/249/220 205/223/220 220/245/220
f 198/224/221 214/250/221 199/228/221
f 191/226/222 207/251/222 192/229/222
f 199/228/223 215/252/223 200/230/223
f 192/229/224 208/253/224 193/231/224
f 219/243/225 235/254/225 220/245/225
f 213/246/226 227/255/226 228/256/226
f 206/248/227 326/257/227 221/258/227
f 482/259/228 220/245/228 235/254/228
f 213/246/229 229/260/229 214/250/229
f 206/248/230 222/261/230 207/251/230
f 214/250/231 230/262/231 215/252/231
f 208/253/232 222/261/232 223/263/232
f 215/252/233 231/264/233 216/237/233
f 208/253/234 224/265/234 209/238/234
f 216/237/235 232/266/235 217/239/235
f 209/238/236 225/267/236 210/240/236
f 218/241/237 232/266/237 233/268/237
f 211/242/238 225/267/238 226/269/238
f 218/241/239 234/270/239 219/243/239
f 212/244/240 226/269/240 227/255/240
f 223/263/241 239/271/241 224/265/241
f 231/264/242 247/272/242 232/266/242
f 225/267/243 239/271/243 240/273/243
f 233/268/244 247/272/244 248/274/244
f 225/267/245 241/275/245 226/269/245
f 234/270/246 248/274/246 249/276/246
f 227/255/247 241/275/247 242/277/247
f 235/254/248 249/276/248 250/278/248
f 228/256/249 242/277/249 243/279/249
f 221/258/250 326/280/250 236/281/250
f 482/282/251 235/254/251 250/278/251
f 228/256/252 244/283/252 229/260/252
f 221/258/253 237/284/253 222/261/253
f 230/262/254 244/283/254 245/285/254
f 222/261/255 238/286/255 223/263/255
f 230/262/256 246/287/256 231/264/256
f 243/279/257 257/288/257 258/289/257
f 236/281/258 326/290/258 251/291/258
f 482/292/259 250/278/259 265/293/259
f 243/279/260 259/294/260 244/283/260
f 237/284/261 251/291/261 252/295/261
f 244/283/262 260/296/262 245/285/262
f 237/284/263 253/297/263 238/286/263
f 245/285/264 261/298/264 246/287/264
f 238/286/265 254/299/265 239/271/265
f 246/287/266 262/300/266 247/272/266
f 240/273/267 254/299/267 255/301/267
f 248/274/268 262/300/268 263/302/268
f 240/273/269 256/303/269 241/275/269
f 248/274/270 264/304/270 249/276/270
f 242/277/271 256/303/271 257/288/271
f 249/276/272 265/293/272 250/278/272
f 261/298/273 277/305/273 262/300/273
f 255/301/274 269/306/274 270/307/274
f 263/302/275 277/305/275 278/308/275
f 255/301/276 271/309/276 256/303/276
f 263/302/277 279/310/277 264/304/277
f 257/288/278 271/309/278 272/311/278
f 265/293/279 279/310/279 280/312/279
f 258/289/280 272/311/280 273/313/280
f 251/291/281 326/314/281 266/315/281
f 482/316/282 265/293/282 280/312/282
f 258/289/283 274/317/283 259/294/283
f 251/291/284 267/318/284 252/295/284
f 260/296/285 274/317/285 275/319/285
f 252/295/286 268/320/286 253/297/286
f 260/296/287 276/321/287 261/298/287
f 253/297/288 269/306/288 254/299/288
f 266/315/289 326/322/289 281/323/289
f 482/324/290 280/312/290 295/325/290
f 273/313/291 289/326/291 274/317/291
f 267/318/292 281/323/292 282/327/292
f 274/317/293 290/328/293 275/319/293
f 267/318/294 283/329/294 268/320/294
f 275/319/295 291/330/295 276/321/295
f 268/320/296 284/331/296 269/306/296
f 276/321/297 292/332/297 277/305/297
f 270/307/298 284/331/298 285/333/298
f 278/308/299 292/332/299 293/334/299
f 270/307/300 286/335/300 271/309/300
f 278/308/301 294/336/301 279/310/301
f 272/311/302 286/335/302 287/337/302
f 279/310/303 295/325/303 280/312/303
f 273/313/304 287/337/304 288/338/304
f 284/331/305 300/339/305 285/333/305
f 293/334/306 307/340/306 308/341/306
f 285/333/307 301/342/307 286/335/307
f 294/336/308 308/341/308 309/343/308
f 287/337/309 301/342/309 302/344/309
f 295/325/310 309/343/310 310/345/310
f 288/338/311 302/344/311 303/346/311
f 281/323/312 326/347/312 296/348/312
f 482/349/313 295/325/313 310/345/313
f 288/338/314 304/350/314 289/326/314
f 281/323/315 297/351/315 282/327/315
f 290/328/316 304/350/316 305/352/316
f 282/327/317 298/353/317 283/329/317
f 290/328/318 306/354/318 291/330/318
f 283/329/319 299/355/319 284/331/319
f 291/330/320 307/340/320 292/332/320
f 303/346/321 319/356/321 304/350/321
f 297/351/322 311/357/322 312/358/322
f 305/352/323 319/356/323 320/359/323
f 297/351/324 313/360/324 298/353/324
f 305/352/325 321/361/325 306/354/325
f 298/353/326 314/362/326 299/355/326
f 306/354/327 322/363/327 307/340/327
f 299/355/328 315/364/328 300/339/328
f 308/341/329 322/363/329 323/365/329
f 301/342/330 315/364/330 316/366/330
f 308/341/331 324/367/331 309/343/331
f 302/344/332 316/366/332 317/368/332
f 309/343/333 325/369/333 310/345/333
f 303/346/334 317/368/334 318/370/334
f 296/348/335 326/371/335 311/357/335
f 482/372/336 310/345/336 325/369/336
f 323/365/337 338/373/337 339/374/337
f 316/366/338 331/375/338 332/376/338
f 324/367/339 339/374/339 340/377/339
f 317/368/340 332/376/340 333/378/340
f 325/369/341 340/377/341 341/379/341
f 318/370/342 333/378/342 334/380/342
f 311/357/343 326/381/343 327/382/343
f 482/383/344 325/369/344 341/379/344
f 318/370/345 335/384/345 319/356/345
f 311/357/346 328/385/346 312/358/346
f 320/359/347 335/384/347 336/386/347
f 312/358/348 329/387/348 313/360/348
f 320/359/349 337/388/349 321/361/349
f 313/360/350 330/389/350 314/362/350
f 321/361/351 338/373/351 322/363/351
f 315/364/352 330/389/352 331/375/352
f 336/386/353 350/390/353 351/391/353
f 329/387/354 343/392/354 344/393/354
f 336/386/355 352/394/355 337/388/355
f 330/389/356 344/393/356 345/395/356
f 337/388/357 353/396/357 338/373/357
f 331/375/358 345/395/358 346/397/358
f 338/373/359 354/398/359 339/374/359
f 331/375/360 347/399/360 332/376/360
f 339/374/361 355/400/361 340/377/361
f 333/378/362 347/399/362 348/401/362
f 341/379/363 355/400/363 356/402/363
f 334/380/364 348/401/364 349/403/364
f 327/382/365 326/404/365 342/405/365
f 482/406/366 341/379/366 356/402/366
f 334/380/367 350/390/367 335/384/367
f 327/382/368 343/392/368 328/385/368
f 354/398/369 370/407/369 355/400/369
f 348/401/370 362/408/370 363/409/370
f 355/400/371 371/410/371 356/402/371
f 349/403/372 363/409/372 364/411/372
f 342/405/373 326/412/373 357/413/373
f 482/414/374 356/402/374 371/410/374
f 349/403/375 365/415/375 350/390/375
f 342/405/376 358/416/376 343/392/376
f 350/390/377 366/417/377 351/391/377
f 343/392/378 359/418/378 344/393/378
f 351/391/379 367/419/379 352/394/379
f 344/393/380 360/420/380 345/395/380
f 353/396/381 367/419/381 368/421/381
f 346/397/382 360/420/382 361/422/382
f 354/398/383 368/421/383 369/423/383
f 347/399/384 361/422/384 362/408/384
f 358/424/385 374/425/385 359/426/385
f 366/427/386 382/428/386 367/429/386
f 359/426/387 375/430/387 360/431/387
f 367/429/388 383/432/388 368/433/388
f 360/431/389 376/434/389 361/435/389
f 369/436/390 383/432/390 384/437/390
f 361/435/391 377/438/391 362/439/391
f 369/436/392 385/440/392 370/441/392
f 362/439/393 378/442/393 363/443/393
f 370/441/394 386/444/394 371/445/394
f 364/446/395 378/442/395 379/447/395
f 357/448/396 326/449/396 372/450/396
f 482/451/397 371/445/397 386/444/397
f 364/446/398 380/452/398 365/453/398
f 357/448/399 373/454/399 358/424/399
f 365/453/400 381/455/400 366/427/400
f 378/442/401 392/456/401 393/457/401
f 385/440/402 401/458/402 386/444/402
f 379/447/403 393/457/403 394/459/403
f 372/450/404 326/460/404 387/461/404
f 482/462/405 386/444/405 401/458/405
f 379/447/406 395/463/406 380/452/406
f 372/450/407 388/464/407 373/454/407
f 381/455/408 395/463/408 396/465/408
f 373/454/409 389/466/409 374/425/409
f 381/455/410 397/467/410 382/428/410
f 374/425/411 390/468/411 375/430/411
f 382/428/412 398/469/412 383/432/412
f 376/434/413 390/468/413 391/470/413
f 384/437/414 398/469/414 399/471/414
f 376/434/415 392/456/415 377/438/415
f 384/437/416 400/472/416 385/440/416
f 396/465/417 412/473/417 397/467/417
f 389/466/418 405/474/418 390/468/418
f 398/469/419 412/473/419 413/475/419
f 390/468/420 406/476/420 391/470/420
f 399/471/421 413/475/421 414/477/421
f 392/456/422 406/476/422 407/478/422
f 400/472/423 414/477/423 415/479/423
f 393/457/424 407/478/424 408/480/424
f 400/472/425 416/481/425 401/458/425
f 394/459/426 408/480/426 409/482/426
f 387/461/427 326/483/427 402/484/427
f 482/485/428 401/458/428 416/481/428
f 394/459/429 410/486/429 395/463/429
f 387/461/430 403/487/430 388/464/430
f 396/465/431 410/486/431 411/488/431
f 388/464/432 404/489/432 389/466/432
f 415/479/433 431/490/433 416/481/433
f 409/482/434 423/491/434 424/492/434
f 402/484/435 326/493/435 417/494/435
f 482/495/436 416/481/436 431/490/436
f 409/482/437 425/496/437 410/486/437
f 403/487/438 417/494/438 418/497/438
f 410/486/439 426/498/439 411/488/439
f 404/489/440 418/497/440 419/499/440
f 411/488/441 427/500/441 412/473/441
f 404/489/442 420/501/442 405/474/442
f 412/473/443 428/502/443 413/475/443
f 406/476/444 420/501/444 421/503/444
f 414/477/445 428/502/445 429/504/445
f 407/478/446 421/503/446 422/505/446
f 414/477/447 430/506/447 415/479/447
f 408/480/448 422/505/448 423/491/448
f 419/499/449 435/507/449 420/501/449
f 428/502/450 442/508/450 443/509/450
f 420/501/451 436/510/451 421/503/451
f 429/504/452 443/509/452 444/511/452
f 422/505/453 436/510/453 437/512/453
f 429/504/454 445/513/454 430/506/454
f 423/491/455 437/512/455 438/514/455
f 430/506/456 446/515/456 431/490/456
f 424/492/457 438/514/457 439/516/457
f 417/494/458 326/517/458 432/518/458
f 482/519/459 431/490/459 446/515/459
f 424/492/460 440/520/460 425/496/460
f 417/494/461 433/521/461 418/497/461
f 425/496/462 441/522/462 426/498/462
f 418/497/463 434/523/463 419/499/463
f 426/498/464 442/508/464 427/500/464
f 439/516/465 453/524/465 454/525/465
f 432/518/466 326/526/466 447/527/466
f 482/528/467 446/515/467 461/529/467
f 439/516/468 455/530/468 440/520/468
f 432/518/469 448/531/469 433/521/469
f 440/520/470 456/532/470 441/522/470
f 434/523/471 448/531/471 449/533/471
f 441/522/472 457/534/472 442/508/472
f 434/523/473 450/535/473 435/507/473
f 442/508/474 458/536/474 443/509/474
f 435/507/475 451/537/475 436/510/475
f 444/511/476 458/536/476 459/538/476
f 436/510/477 452/539/477 437/512/477
f 444/511/478 460/540/478 445/513/478
f 438/514/479 452/539/479 453/524/479
f 445/513/480 461/529/480 446/515/480
f 457/534/481 473/541/481 458/536/481
f 450/535/482 466/542/482 451/537/482
f 459/538/483 473/541/483 474/543/483
f 452/539/484 466/542/484 467/544/484
f 459/538/485 475/545/485 460/540/485
f 453/524/486 467/544/486 468/546/486
f 461/529/487 475/545/487 476/547/487
f 454/525/488 468/546/488 469/548/488
f 447/527/489 326/549/489 462/550/489
f 482/551/490 461/529/490 476/547/490
f 454/525/491 470/552/491 455/530/491
f 448/531/492 462/550/492 463/553/492
f 455/530/493 471/554/493 456/532/493
f 448/531/494 464/555/494 449/533/494
f 456/532/495 472/556/495 457/534/495
f 449/533/496 465/557/496 450/535/496
f 482/558/497 476/547/497 481/5/497
f 469/548/498 478/9/498 470/552/498
f 463/553/499 1/1/499 2/11/499
f 471/554/500 478/9/500 479/13/500
f 464/555/501 2/11/501 3/15/501
f 471/554/502 8/17/502 472/556/502
f 465/557/503 3/15/503 4/19/503
f 472/556/504 9/21/504 473/541/504
f 466/542/505 4/19/505 5/23/505
f 473/541/506 10/24/506 474/543/506
f 467/544/507 5/23/507 6/27/507
f 474/543/508 480/29/508 475/545/508
f 468/546/509 6/27/509 7/30/509
f 476/547/510 480/29/510 481/5/510
f 469/548/511 7/30/511 477/7/511
f 462/550/512 326/559/512 1/1/512
f 477/7/3 18/32/3 19/8/3
f 1/1/4 11/3/4 12/10/4
f 478/9/5 19/8/5 20/12/5
f 2/11/6 12/10/6 13/14/6
f 479/13/7 20/12/7 21/16/7
f 3/15/8 13/14/8 14/18/8
f 8/17/9 21/16/9 22/20/9
f 4/19/10 14/18/10 15/22/10
f 10/24/11 9/21/11 22/20/11
f 5/23/12 15/22/12 16/26/12
f 10/24/13 23/25/13 24/28/13
f 7/30/14 6/27/14 16/26/14
f 480/29/15 24/28/15 25/6/15
f 477/7/16 7/30/16 17/31/16
f 16/26/17 31/49/17 32/33/17
f 25/6/18 24/28/18 39/34/18
f 18/32/19 17/31/19 32/33/19
f 18/32/22 33/36/22 34/40/22
f 11/3/23 26/38/23 27/41/23
f 19/8/24 34/40/24 35/42/24
f 13/14/25 12/10/25 27/41/25
f 20/12/26 35/42/26 36/44/26
f 14/18/27 13/14/27 28/43/27
f 21/16/28 36/44/28 37/46/28
f 14/18/29 29/45/29 30/47/29
f 23/25/30 22/20/30 37/46/30
f 15/22/31 30/47/31 31/49/31
f 24/28/32 23/25/32 38/48/32
f 36/44/33 35/42/33 50/50/33
f 28/43/34 43/66/34 44/52/34
f 36/44/35 51/51/35 52/53/35
f 29/45/36 44/52/36 45/54/36
f 37/46/37 52/53/37 53/55/37
f 30/47/38 45/54/38 46/56/38
f 39/34/513 38/48/513 53/55/513
f 32/33/40 31/49/40 46/56/40
f 40/35/41 39/34/41 54/57/41
f 33/36/42 32/33/42 47/58/42
f 33/36/45 48/60/45 49/64/45
f 26/38/46 41/62/46 42/65/46
f 35/42/47 34/40/47 49/64/47
f 27/41/48 42/65/48 43/66/48
f 54/57/49 69/83/49 70/67/49
f 48/60/50 47/58/50 62/68/50
f 48/60/53 63/69/53 64/73/53
f 41/62/54 56/71/54 57/74/54
f 50/50/55 49/64/55 64/73/55
f 42/65/56 57/74/56 58/76/56
f 51/51/57 50/50/57 65/75/57
f 43/66/58 58/76/58 59/78/58
f 51/51/59 66/77/59 67/79/59
f 44/52/60 59/78/60 60/80/60
f 52/53/61 67/79/61 68/81/61
f 46/56/62 45/54/62 60/80/62
f 53/55/63 68/81/63 69/83/63
f 46/56/64 61/82/64 62/68/64
f 66/77/65 81/99/65 82/84/65
f 59/78/66 74/100/66 75/85/66
f 68/81/67 67/79/67 82/84/67
f 61/82/68 60/80/68 75/85/68
f 69/83/69 68/81/69 83/86/69
f 62/68/70 61/82/70 76/87/70
f 69/83/71 84/88/71 85/90/71
f 63/69/72 62/68/72 77/89/72
f 63/69/75 78/91/75 79/95/75
f 56/71/76 71/93/76 72/96/76
f 64/73/77 79/95/77 80/97/77
f 57/74/78 72/96/78 73/98/78
f 65/75/79 80/97/79 81/99/79
f 58/76/80 73/98/80 74/100/80
f 78/91/514 93/117/514 94/105/514
f 71/93/84 86/102/84 87/106/84
f 80/97/85 79/95/85 94/105/85
f 72/96/86 87/106/86 88/108/86
f 80/97/87 95/107/87 96/109/87
f 73/98/88 88/108/88 89/110/88
f 81/99/89 96/109/89 97/111/89
f 75/85/90 74/100/90 89/110/90
f 82/84/91 97/111/91 98/113/91
f 75/85/92 90/112/92 91/114/92
f 83/86/93 98/113/93 99/115/93
f 77/89/94 76/87/94 91/114/94
f 84/88/95 99/115/95 100/104/95
f 78/91/515 77/89/515 92/116/515
f 90/112/97 89/110/97 104/118/97
f 98/113/98 97/111/98 112/120/98
f 90/112/99 105/119/99 106/122/99
f 98/113/100 113/121/100 114/123/100
f 92/116/101 91/114/101 106/122/101
f 99/115/102 114/123/102 115/125/102
f 93/117/103 92/116/103 107/124/103
f 93/117/106 108/126/106 109/130/106
f 86/102/107 101/128/107 102/131/107
f 95/107/108 94/105/108 109/130/108
f 87/106/109 102/131/109 103/133/109
f 95/107/110 110/132/110 111/134/110
f 88/108/111 103/133/111 104/118/111
f 96/109/112 111/134/112 112/120/112
f 108/126/113 123/149/113 124/135/113
f 102/131/114 101/128/114 116/136/114
f 110/132/115 109/130/115 124/135/115
f 102/131/116 117/137/116 118/139/116
f 110/132/117 125/138/117 126/140/117
f 103/133/118 118/139/118 119/141/118
f 112/120/119 111/134/119 126/140/119
f 104/118/120 119/141/120 120/143/120
f 113/121/121 112/120/121 127/142/121
f 105/119/122 120/143/122 121/145/122
f 114/123/123 113/121/123 128/144/123
f 106/122/124 121/145/124 122/147/124
f 114/123/125 129/146/125 130/148/125
f 108/126/126 107/124/126 122/147/126
f 128/144/129 127/142/129 142/152/129
f 120/143/130 135/168/130 136/154/130
f 128/144/131 143/153/131 144/155/131
f 121/145/132 136/154/132 137/156/132
f 129/146/133 144/155/133 145/157/133
f 123/149/134 122/147/134 137/156/134
f 123/149/137 138/158/137 139/162/137
f 117/137/138 116/136/138 131/160/138
f 124/135/139 139/162/139 140/164/139
f 118/139/140 117/137/140 132/163/140
f 125/138/141 140/164/141 141/166/141
f 118/139/142 133/165/142 134/167/142
f 126/140/143 141/166/143 142/152/143
f 120/143/144 119/141/144 134/167/144
f 131/160/145 146/184/145 147/169/145
f 140/164/146 139/162/146 154/170/146
f 132/163/147 147/169/147 148/172/147
f 140/164/148 155/171/148 156/173/148
f 133/165/149 148/172/149 149/174/149
f 141/166/150 156/173/150 157/175/150
f 135/168/151 134/167/151 149/174/151
f 143/153/152 142/152/152 157/175/152
f 135/168/153 150/176/153 151/178/153
f 143/153/154 158/177/154 159/179/154
f 137/156/155 136/154/155 151/178/155
f 145/157/156 144/155/156 159/179/156
f 138/158/157 137/156/157 152/180/157
f 138/158/160 153/182/160 154/170/160
f 150/176/161 165/201/161 166/186/161
f 158/177/516 173/202/516 174/187/516
f 152/180/163 151/178/163 166/186/163
f 160/181/164 159/179/164 174/187/164
f 153/182/165 152/180/165 167/188/165
f 153/182/168 168/190/168 169/194/168
f 146/184/169 161/192/169 162/195/169
f 155/171/170 154/170/170 169/194/170
f 147/169/171 162/195/171 163/197/171
f 155/171/172 170/196/172 171/198/172
f 148/172/173 163/197/173 164/199/173
f 157/175/174 156/173/174 171/198/174
f 149/174/175 164/199/175 165/201/175
f 158/177/176 157/175/176 172/200/176
f 170/196/177 169/194/177 184/203/177
f 162/195/178 177/219/178 178/205/178
f 170/196/179 185/204/179 186/206/179
f 163/197/180 178/205/180 179/207/180
f 172/200/181 171/198/181 186/206/181
f 164/199/182 179/207/182 180/209/182
f 172/200/183 187/208/183 188/210/183
f 165/201/184 180/209/184 181/211/184
f 173/202/185 188/210/185 189/212/185
f 167/188/186 166/186/186 181/211/186
f 174/187/187 189/212/187 190/214/187
f 168/190/188 167/188/188 182/213/188
f 168/190/191 183/215/191 184/203/191
f 161/192/192 176/217/192 177/219/192
f 189/212/193 188/210/193 203/220/193
f 181/211/194 196/236/194 197/222/194
f 189/212/195 204/221/195 205/223/195
f 183/215/196 182/213/196 197/222/196
f 183/215/199 198/224/199 199/228/199
f 177/219/517 176/217/517 191/226/517
f 185/204/201 184/203/201 199/228/201
f 177/219/202 192/229/202 193/231/202
f 185/204/203 200/230/203 201/232/203
f 178/205/204 193/231/204 194/233/204
f 186/206/205 201/232/205 202/234/205
f 180/209/206 179/207/206 194/233/206
f 187/208/207 202/234/207 203/220/207
f 180/209/208 195/235/208 196/236/208
f 200/230/209 215/252/209 216/237/209
f 193/231/210 208/253/210 209/238/210
f 201/232/211 216/237/211 217/239/211
f 195/235/212 194/233/212 209/238/212
f 203/220/213 202/234/213 217/239/213
f 195/235/214 210/240/214 211/242/214
f 203/220/518 218/241/518 219/243/518
f 197/222/216 196/236/216 211/242/216
f 204/221/217 219/243/217 220/245/217
f 198/224/218 197/222/218 212/244/218
f 198/224/221 213/246/221 214/250/221
f 191/226/222 206/248/222 207/251/222
f 199/228/223 214/250/223 215/252/223
f 192/229/224 207/251/224 208/253/224
f 219/243/225 234/270/225 235/254/225
f 213/246/226 212/244/226 227/255/226
f 213/246/229 228/256/229 229/260/229
f 206/248/230 221/258/230 222/261/230
f 214/250/231 229/260/231 230/262/231
f 208/253/232 207/251/232 222/261/232
f 215/252/233 230/262/233 231/264/233
f 208/253/234 223/263/234 224/265/234
f 216/237/235 231/264/235 232/266/235
f 209/238/236 224/265/236 225/267/236
f 218/241/237 217/239/237 232/266/237
f 211/242/238 210/240/238 225/267/238
f 218/241/239 233/268/239 234/270/239
f 212/244/240 211/242/240 226/269/240
f 223/263/241 238/286/241 239/271/241
f 231/264/242 246/287/242 247/272/242
f 225/267/243 224/265/243 239/271/243
f 233/268/244 232/266/244 247/272/244
f 225/267/245 240/273/245 241/275/245
f 234/270/246 233/268/246 248/274/246
f 227/255/247 226/269/247 241/275/247
f 235/254/248 234/270/248 249/276/248
f 228/256/519 227/255/519 242/277/519
f 228/256/520 243/279/520 244/283/520
f 221/258/253 236/281/253 237/284/253
f 230/262/254 229/260/254 244/283/254
f 222/261/255 237/284/255 238/286/255
f 230/262/256 245/285/256 246/287/256
f 243/279/257 242/277/257 257/288/257
f 243/279/521 258/289/521 259/294/521
f 237/284/261 236/281/261 251/291/261
f 244/283/262 259/294/262 260/296/262
f 237/284/263 252/295/263 253/297/263
f 245/285/264 260/296/264 261/298/264
f 238/286/265 253/297/265 254/299/265
f 246/287/266 261/298/266 262/300/266
f 240/273/267 239/271/267 254/299/267
f 248/274/268 247/272/268 262/300/268
f 240/273/269 255/301/269 256/303/269
f 248/274/270 263/302/270 264/304/270
f 242/277/271 241/275/271 256/303/271
f 249/276/272 264/304/272 265/293/272
f 261/298/273 276/321/273 277/305/273
f 255/301/274 254/299/274 269/306/274
f 263/302/275 262/300/275 277/305/275
f 255/301/276 270/307/276 271/309/276
f 263/302/277 278/308/277 279/310/277
f 257/288/278 256/303/278 271/309/278
f 265/293/279 264/304/279 279/310/279
f 258/289/280 257/288/280 272/311/280
f 258/289/283 273/313/283 274/317/283
f 251/291/284 266/315/284 267/318/284
f 260/296/285 259/294/285 274/317/285
f 252/295/286 267/318/286 268/320/286
f 260/296/287 275/319/287 276/321/287
f 253/297/288 268/320/288 269/306/288
f 273/313/291 288/338/291 289/326/291
f 267/318/292 266/315/292 281/323/292
f 274/317/293 289/326/293 290/328/293
f 267/318/522 282/327/522 283/329/522
f 275/319/295 290/328/295 291/330/295
f 268/320/296 283/329/296 284/331/296
f 276/321/297 291/330/297 292/332/297
f 270/307/298 269/306/298 284/331/298
f 278/308/299 277/305/299 292/332/299
f 270/307/300 285/333/300 286/335/300
f 278/308/301 293/334/301 294/336/301
f 272/311/302 271/309/302 286/335/302
f 279/310/303 294/336/303 295/325/303
f 273/313/304 272/311/304 287/337/304
f 284/331/305 299/355/305 300/339/305
f 293/334/306 292/332/306 307/340/306
f 285/333/307 300/339/307 301/342/307
f 294/336/308 293/334/308 308/341/308
f 287/337/309 286/335/309 301/342/309
f 295/325/310 294/336/310 309/343/310
f 288/338/311 287/337/311 302/344/311
f 288/338/314 303/346/314 304/350/314
f 281/323/315 296/348/315 297/351/315
f 290/328/316 289/326/316 304/350/316
f 282/327/317 297/351/317 298/353/317
f 290/328/318 305/352/318 306/354/318
f 283/329/319 298/353/319 299/355/319
f 291/330/320 306/354/320 307/340/320
f 303/346/321 318/370/321 319/356/321
f 297/351/322 296/348/322 311/357/322
f 305/352/323 304/350/323 319/356/323
f 297/351/324 312/358/324 313/360/324
f 305/352/325 320/359/325 321/361/325
f 298/353/326 313/360/326 314/362/326
f 306/354/327 321/361/327 322/363/327
f 299/355/328 314/362/328 315/364/328
f 308/341/329 307/340/329 322/363/329
f 301/342/330 300/339/330 315/364/330
f 308/341/331 323/365/331 324/367/331
f 302/344/332 301/342/332 316/366/332
f 309/343/333 324/367/333 325/369/333
f 303/346/334 302/344/334 317/368/334
f 323/365/337 322/363/337 338/373/337
f 316/366/338 315/364/338 331/375/338
f 324/367/523 323/365/523 339/374/523
f 317/368/340 316/366/340 332/376/340
f 325/369/341 324/367/341 340/377/341
f 318/370/342 317/368/342 333/378/342
f 318/370/345 334/380/345 335/384/345
f 311/357/346 327/382/346 328/385/346
f 320/359/347 319/356/347 335/384/347
f 312/358/524 328/385/524 329/387/524
f 320/359/349 336/386/349 337/388/349
f 313/360/350 329/387/350 330/389/350
f 321/361/351 337/388/351 338/373/351
f 315/364/352 314/362/352 330/389/352
f 336/386/353 335/384/353 350/390/353
f 329/387/354 328/385/354 343/392/354
f 336/386/355 351/391/355 352/394/355
f 330/389/356 329/387/356 344/393/356
f 337/388/357 352/394/357 353/396/357
f 331/375/358 330/389/358 345/395/358
f 338/373/359 353/396/359 354/398/359
f 331/375/360 346/397/360 347/399/360
f 339/374/361 354/398/361 355/400/361
f 333/378/362 332/376/362 347/399/362
f 341/379/363 340/377/363 355/400/363
f 334/380/364 333/378/364 348/401/364
f 334/380/367 349/403/367 350/390/367
f 327/382/368 342/405/368 343/392/368
f 354/398/369 369/423/369 370/407/369
f 348/401/370 347/399/370 362/408/370
f 355/400/371 370/407/371 371/410/371
f 349/403/525 348/401/525 363/409/525
f 349/403/526 364/411/526 365/415/526
f 342/405/376 357/413/376 358/416/376
f 350/390/377 365/415/377 366/417/377
f 343/392/378 358/416/378 359/418/378
f 351/391/379 366/417/379 367/419/379
f 344/393/380 359/418/380 360/420/380
f 353/396/381 352/394/381 367/419/381
f 346/397/382 345/395/382 360/420/382
f 354/398/383 353/396/383 368/421/383
f 347/399/384 346/397/384 361/422/384
f 358/424/385 373/454/385 374/425/385
f 366/427/386 381/455/386 382/428/386
f 359/426/387 374/425/387 375/430/387
f 367/429/388 382/428/388 383/432/388
f 360/431/389 375/430/389 376/434/389
f 369/436/390 368/433/390 383/432/390
f 361/435/391 376/434/391 377/438/391
f 369/436/392 384/437/392 385/440/392
f 362/439/393 377/438/393 378/442/393
f 370/441/394 385/440/394 386/444/394
f 364/446/395 363/443/395 378/442/395
f 364/446/398 379/447/398 380/452/398
f 357/448/399 372/450/399 373/454/399
f 365/453/400 380/452/400 381/455/400
f 378/442/401 377/438/401 392/456/401
f 385/440/402 400/472/402 401/458/402
f 379/447/403 378/442/403 393/457/403
f 379/447/406 394/459/406 395/463/406
f 372/450/407 387/461/407 388/464/407
f 381/455/408 380/452/408 395/463/408
f 373/454/409 388/464/409 389/466/409
f 381/455/410 396/465/410 397/467/410
f 374/425/411 389/466/411 390/468/411
f 382/428/412 397/467/412 398/469/412
f 376/434/413 375/430/413 390/468/413
f 384/437/414 383/432/414 398/469/414
f 376/434/415 391/470/415 392/456/415
f 384/437/416 399/471/416 400/472/416
f 396/465/417 411/488/417 412/473/417
f 389/466/418 404/489/418 405/474/418
f 398/469/419 397/467/419 412/473/419
f 390/468/420 405/474/420 406/476/420
f 399/471/421 398/469/421 413/475/421
f 392/456/422 391/470/422 406/476/422
f 400/472/527 399/471/527 414/477/527
f 393/457/424 392/456/424 407/478/424
f 400/472/425 415/479/425 416/481/425
f 394/459/426 393/457/426 408/480/426
f 394/459/429 409/482/429 410/486/429
f 387/461/430 402/484/430 403/487/430
f 396/465/431 395/463/431 410/486/431
f 388/464/528 403/487/528 404/489/528
f 415/479/433 430/506/433 431/490/433
f 409/482/434 408/480/434 423/491/434
f 409/482/437 424/492/437 425/496/437
f 403/487/438 402/484/438 417/494/438
f 410/486/439 425/496/439 426/498/439
f 404/489/440 403/487/440 418/497/440
f 411/488/441 426/498/441 427/500/441
f 404/489/442 419/499/442 420/501/442
f 412/473/443 427/500/443 428/502/443
f 406/476/444 405/474/444 420/501/444
f 414/477/445 413/475/445 428/502/445
f 407/478/446 406/476/446 421/503/446
f 414/477/447 429/504/447 430/506/447
f 408/480/448 407/478/448 422/505/448
f 419/499/449 434/523/449 435/507/449
f 428/502/450 427/500/450 442/508/450
f 420/501/451 435/507/451 436/510/451
f 429/504/452 428/502/452 443/509/452
f 422/505/453 421/503/453 436/510/453
f 429/504/454 444/511/454 445/513/454
f 423/491/455 422/505/455 437/512/455
f 430/506/529 445/513/529 446/515/529
f 424/492/457 423/491/457 438/514/457
f 424/492/460 439/516/460 440/520/460
f 417/494/461 432/518/461 433/521/461
f 425/496/462 440/520/462 441/522/462
f 418/497/463 433/521/463 434/523/463
f 426/498/464 441/522/464 442/508/464
f 439/516/465 438/514/465 453/524/465
f 439/516/468 454/525/468 455/530/468
f 432/518/469 447/527/469 448/531/469
f 440/520/470 455/530/470 456/532/470
f 434/523/530 433/521/530 448/531/530
f 441/522/472 456/532/472 457/534/472
f 434/523/473 449/533/473 450/535/473
f 442/508/474 457/534/474 458/536/474
f 435/507/475 450/535/475 451/537/475
f 444/511/476 443/509/476 458/536/476
f 436/510/477 451/537/477 452/539/477
f 444/511/478 459/538/478 460/540/478
f 438/514/479 437/512/479 452/539/479
f 445/513/480 460/540/480 461/529/480
f 457/534/481 472/556/481 473/541/481
f 450/535/482 465/557/482 466/542/482
f 459/538/483 458/536/483 473/541/483
f 452/539/484 451/537/484 466/542/484
f 459/538/485 474/543/485 475/545/485
f 453/524/486 452/539/486 467/544/486
f 461/529/487 460/540/487 475/545/487
f 454/525/488 453/524/488 468/546/488
f 454/525/491 469/548/491 470/552/491
f 448/531/492 447/527/492 462/550/492
f 455/530/493 470/552/493 471/554/493
f 448/531/494 463/553/494 464/555/494
f 456/532/495 471/554/495 472/556/495
f 449/533/496 464/555/496 465/557/496
f 469/548/498 477/7/498 478/9/498
f 463/553/499 462/550/499 1/1/499
f 471/554/500 470/552/500 478/9/500
f 464/555/501 463/553/501 2/11/501
f 471/554/502 479/13/502 8/17/502
f 465/557/503 464/555/503 3/15/503
f 472/556/504 8/17/504 9/21/504
f 466/542/505 465/557/505 4/19/505
f 473/541/506 9/21/506 10/24/506
f 467/544/507 466/542/507 5/23/507
f 474/543/508 10/24/508 480/29/508
f 468/546/509 467/544/509 6/27/509
f 476/547/510 475/545/510 480/29/510
f 469/548/531 468/546/531 7/30/531
